<?xml version="1.0" encoding="UTF-8"?>
<svg version="1.1" xmlns="http://www.w3.org/2000/svg" width="380" height="122">
<path d="M0 0 C2.64 0 5.28 0 8 0 C8 5.28 8 10.56 8 16 C13.28 16 18.56 16 24 16 C24 15.34 24 14.68 24 14 C24.66 14 25.32 14 26 14 C26.144375 13.38125 26.28875 12.7625 26.4375 12.125 C27 10 27 10 28 8 C28.66 8 29.32 8 30 8 C30 6.68 30 5.36 30 4 C30.66 4 31.32 4 32 4 C32.66 2.68 33.32 1.36 34 0 C36.64 0 39.28 0 42 0 C42 1.32 42 2.64 42 4 C42.66 4 43.32 4 44 4 C44 4.66 44 5.32 44 6 C44.66 6 45.32 6 46 6 C46 7.32 46 8.64 46 10 C46.66 10 47.32 10 48 10 C48.99 11.98 49.98 13.96 51 16 C51.33 10.72 51.66 5.44 52 0 C60 0 60 0 62.93359375 1.93359375 C63.75988281 2.75988281 64.58617187 3.58617188 65.4375 4.4375 C66.28183594 5.26121094 67.12617188 6.08492188 67.99609375 6.93359375 C68.65738281 7.61550781 69.31867188 8.29742187 70 9 C70.495 9.495 70.495 9.495 71 10 C71.33 6.7 71.66 3.4 72 0 C81.9 0 91.8 0 102 0 C102 0.66 102 1.32 102 2 C102.99 2 103.98 2 105 2 C107.1875 4 107.1875 4 109 6 C109.66 4.02 110.32 2.04 111 0 C114.375 -0.125 114.375 -0.125 118 0 C120 2 120 2 120 6 C120.66 6 121.32 6 122 6 C122.495 7.98 122.495 7.98 123 10 C125.1385485 7.8614515 125.42655063 6.86724686 126 4 C126.66 4 127.32 4 128 4 C128 2.68 128 1.36 128 0 C129.27875 -0.061875 130.5575 -0.12375 131.875 -0.1875 C132.95394531 -0.23970703 132.95394531 -0.23970703 134.0546875 -0.29296875 C134.69664062 -0.19628906 135.33859375 -0.09960938 136 0 C138.4849427 3.72741406 139.17621888 7.28412382 140.21875 11.6015625 C140.4765625 12.39304687 140.734375 13.18453125 141 14 C141.99 14.495 141.99 14.495 143 15 C143.33 14.01 143.66 13.02 144 12 C144.66 12 145.32 12 146 12 C146.66 10.02 147.32 8.04 148 6 C148.66 6 149.32 6 150 6 C150 4.68 150 3.36 150 2 C150.66 2 151.32 2 152 2 C152 1.34 152 0.68 152 0 C154.64 0 157.28 0 160 0 C160 0.66 160 1.32 160 2 C160.66 2 161.32 2 162 2 C164 5 164 5 164 8 C164.66 8 165.32 8 166 8 C166.99 10.97 166.99 10.97 168 14 C168.66 14 169.32 14 170 14 C169.97679687 13.15695313 169.95359375 12.31390625 169.9296875 11.4453125 C169.91164062 10.34960938 169.89359375 9.25390625 169.875 8.125 C169.85179687 7.03445312 169.82859375 5.94390625 169.8046875 4.8203125 C170 2 170 2 172 0 C174.43017578 -0.22705078 174.43017578 -0.22705078 177.4453125 -0.1953125 C179.05986328 -0.18564453 179.05986328 -0.18564453 180.70703125 -0.17578125 C181.83496094 -0.15902344 182.96289062 -0.14226562 184.125 -0.125 C185.82849609 -0.11146484 185.82849609 -0.11146484 187.56640625 -0.09765625 C190.37781299 -0.07403098 193.18880298 -0.04109013 196 0 C196 0.66 196 1.32 196 2 C196.99 2.33 197.98 2.66 199 3 C199.33 2.01 199.66 1.02 200 0 C202.64 0 205.28 0 208 0 C208.99 2.97 208.99 2.97 210 6 C210.66 6 211.32 6 212 6 C212 5.34 212 4.68 212 4 C212.66 4 213.32 4 214 4 C214 3.34 214 2.68 214 2 C217.4766338 -0.14336161 220.21229195 -0.21277626 224.25 -0.125 C225.32765625 -0.10695313 226.4053125 -0.08890625 227.515625 -0.0703125 C228.74539063 -0.03550781 228.74539063 -0.03550781 230 0 C230 1.32 230 2.64 230 4 C224.88888889 8 224.88888889 8 222 8 C222 8.66 222 9.32 222 10 C221.34 10 220.68 10 220 10 C220 10.66 220 11.32 220 12 C219.34 12 218.68 12 218 12 C218 12.66 218 13.32 218 14 C218.66 14 219.32 14 220 14 C220 14.66 220 15.32 220 16 C221.32 16 222.64 16 224 16 C224 16.66 224 17.32 224 18 C224.66 18 225.32 18 226 18 C226 18.66 226 19.32 226 20 C227.32 20.33 228.64 20.66 230 21 C230.5625 22.9375 230.5625 22.9375 231 25 C229.27026886 26.72973114 226.97483037 26.17208117 224.625 26.1875 C223.64789063 26.20167969 222.67078125 26.21585938 221.6640625 26.23046875 C219 26 219 26 216 24 C216 23.34 216 22.68 216 22 C214.02 21.67 212.04 21.34 210 21 C209.34 22.65 208.68 24.3 208 26 C202.72 26 197.44 26 192 26 C192 25.34 192 24.68 192 24 C191.34 24 190.68 24 190 24 C190 23.34 190 22.68 190 22 C189.34 22 188.68 22 188 22 C188 21.34 188 20.68 188 20 C185.69 20 183.38 20 181 20 C180.67 21.98 180.34 23.96 180 26 C177.56131832 26.1079859 175.12740867 26.18726589 172.6875 26.25 C171.99720703 26.28351563 171.30691406 26.31703125 170.59570312 26.3515625 C165.47198304 26.45057158 165.47198304 26.45057158 163.01953125 24.109375 C162 22 162 22 162 20 C158.04 20 154.08 20 150 20 C149.67 21.32 149.34 22.64 149 24 C147 26 147 26 144.1796875 26.1953125 C143.08914062 26.17210938 141.99859375 26.14890625 140.875 26.125 C139.77929688 26.10695313 138.68359375 26.08890625 137.5546875 26.0703125 C136.71164063 26.04710938 135.86859375 26.02390625 135 26 C133.02 22.04 133.02 22.04 131 18 C130.360625 19.134375 129.72125 20.26875 129.0625 21.4375 C127.125 24.875 127.125 24.875 126 26 C123.20204381 26.2945217 121.61684965 26.45692567 119.3125 24.75 C117.9351871 22.91358281 116.9378459 21.09211779 116 19 C115.67 19 115.34 19 115 19 C114.814375 20.4540625 114.814375 20.4540625 114.625 21.9375 C114.41875 22.948125 114.2125 23.95875 114 25 C110.98675805 26.50662097 108.31713623 26.17770373 105 26 C104.01 25.01 104.01 25.01 103 24 C102.45883545 24.3194458 101.9176709 24.6388916 101.36010742 24.96801758 C96.65072898 27.02724409 91.37952117 26.58386275 86.3125 26.6875 C85.16587891 26.75388672 84.01925781 26.82027344 82.83789062 26.88867188 C77.80532077 26.97797334 74.3675991 27.01393879 70.23193359 23.94775391 C67.79296875 21.45703125 67.79296875 21.45703125 65.69604492 18.94458008 C65.1363501 18.30286865 64.57665527 17.66115723 64 17 C63.34 17 62.68 17 62 17 C61.67 19.97 61.34 22.94 61 26 C58.58145554 26.13536629 56.17050217 26.23420279 53.75 26.3125 C53.06808594 26.35439453 52.38617188 26.39628906 51.68359375 26.43945312 C49.671875 26.48828125 49.671875 26.48828125 46 26 C43.84375 23.53125 43.84375 23.53125 42 21 C39.43729081 20.19267596 39.43729081 20.19267596 36.75 20.1875 C35.85796875 20.13980469 34.9659375 20.09210938 34.046875 20.04296875 C33.37140625 20.02878906 32.6959375 20.01460937 32 20 C32 20.66 32 21.32 32 22 C31.34 22 30.68 22 30 22 C29.67 23.32 29.34 24.64 29 26 C19.43 26 9.86 26 0 26 C-0.185625 23.195 -0.37125 20.39 -0.5625 17.5 C-0.62381104 16.63310547 -0.68512207 15.76621094 -0.74829102 14.87304688 C-1.05842732 9.75782672 -0.78423995 5.06560915 0 0 Z M88 8 C88 10.97 88 13.94 88 17 C93.08303686 17.11320856 93.08303686 17.11320856 98 16 C98 15.34 98 14.68 98 14 C98.66 14 99.32 14 100 14 C98.88145414 10.27385847 98.88145414 10.27385847 96 8 C94.62657169 7.9310528 93.24997898 7.91532292 91.875 7.9375 C89.956875 7.9684375 89.956875 7.9684375 88 8 Z M180 8 C180 9.32 180 10.64 180 12 C181.62490954 12.02698189 183.24994633 12.04638757 184.875 12.0625 C186.23238281 12.07990234 186.23238281 12.07990234 187.6171875 12.09765625 C190.0168585 12.16249257 190.0168585 12.16249257 192 11 C191.67 10.01 191.34 9.02 191 8 C187.37 8 183.74 8 180 8 Z M170 15 C171 18 171 18 171 18 Z M198 16 C198 16.66 198 17.32 198 18 C198.66 18 199.32 18 200 18 C200 17.34 200 16.68 200 16 C199.34 16 198.68 16 198 16 Z " fill="#D3D7F5" transform="translate(74,65)"/>
<path d="M0 0 C2.64 0 5.28 0 8 0 C8 0.66 8 1.32 8 2 C8.66 2 9.32 2 10 2 C12 5 12 5 12 8 C12.66 8 13.32 8 14 8 C14.66 9.98 15.32 11.96 16 14 C16.66 14 17.32 14 18 14 C17.97679687 13.15695313 17.95359375 12.31390625 17.9296875 11.4453125 C17.91164063 10.34960938 17.89359375 9.25390625 17.875 8.125 C17.85179687 7.03445312 17.82859375 5.94390625 17.8046875 4.8203125 C18 2 18 2 20 0 C22.43017578 -0.22705078 22.43017578 -0.22705078 25.4453125 -0.1953125 C27.05986328 -0.18564453 27.05986328 -0.18564453 28.70703125 -0.17578125 C29.83496094 -0.15902344 30.96289062 -0.14226562 32.125 -0.125 C33.82849609 -0.11146484 33.82849609 -0.11146484 35.56640625 -0.09765625 C38.37781299 -0.07403098 41.18880298 -0.04109013 44 0 C44 0.66 44 1.32 44 2 C44.99 2.33 45.98 2.66 47 3 C47.33 2.01 47.66 1.02 48 0 C50.64 0 53.28 0 56 0 C56.99 2.97 56.99 2.97 58 6 C58.66 6 59.32 6 60 6 C60 5.34 60 4.68 60 4 C60.66 4 61.32 4 62 4 C62 3.34 62 2.68 62 2 C65.4766338 -0.14336161 68.21229195 -0.21277626 72.25 -0.125 C73.32765625 -0.10695313 74.4053125 -0.08890625 75.515625 -0.0703125 C76.74539063 -0.03550781 76.74539063 -0.03550781 78 0 C78 1.32 78 2.64 78 4 C72.88888889 8 72.88888889 8 70 8 C70 8.66 70 9.32 70 10 C69.34 10 68.68 10 68 10 C68 10.66 68 11.32 68 12 C67.34 12 66.68 12 66 12 C66 12.66 66 13.32 66 14 C66.66 14 67.32 14 68 14 C68 14.66 68 15.32 68 16 C69.32 16 70.64 16 72 16 C72 16.66 72 17.32 72 18 C72.66 18 73.32 18 74 18 C74 18.66 74 19.32 74 20 C75.98 20.495 75.98 20.495 78 21 C78.5625 22.9375 78.5625 22.9375 79 25 C77.27026886 26.72973114 74.97483037 26.17208117 72.625 26.1875 C71.64789063 26.20167969 70.67078125 26.21585938 69.6640625 26.23046875 C67 26 67 26 64 24 C64 23.34 64 22.68 64 22 C62.02 21.67 60.04 21.34 58 21 C57.34 22.65 56.68 24.3 56 26 C50.72 26 45.44 26 40 26 C40 25.34 40 24.68 40 24 C39.34 24 38.68 24 38 24 C38 23.34 38 22.68 38 22 C37.34 22 36.68 22 36 22 C36 21.34 36 20.68 36 20 C33.69 20 31.38 20 29 20 C28.67 21.98 28.34 23.96 28 26 C25.56131832 26.1079859 23.12740867 26.18726589 20.6875 26.25 C19.99720703 26.28351563 19.30691406 26.31703125 18.59570312 26.3515625 C13.47198304 26.45057158 13.47198304 26.45057158 11.01953125 24.109375 C10 22 10 22 10 20 C6.04 20 2.08 20 -2 20 C-2.33 21.32 -2.66 22.64 -3 24 C-5 26 -5 26 -7.8203125 26.1953125 C-8.91085938 26.17210938 -10.00140625 26.14890625 -11.125 26.125 C-12.22070312 26.10695313 -13.31640625 26.08890625 -14.4453125 26.0703125 C-15.28835937 26.04710938 -16.13140625 26.02390625 -17 26 C-18.32 23.36 -19.64 20.72 -21 18 C-21.639375 19.134375 -22.27875 20.26875 -22.9375 21.4375 C-24.875 24.875 -24.875 24.875 -26 26 C-28.79795619 26.2945217 -30.38315035 26.45692567 -32.6875 24.75 C-34.0648129 22.91358281 -35.0621541 21.09211779 -36 19 C-36.33 19 -36.66 19 -37 19 C-37.12375 19.969375 -37.2475 20.93875 -37.375 21.9375 C-37.58125 22.948125 -37.7875 23.95875 -38 25 C-40.95664519 26.4783226 -43.74229737 26.06032783 -47 26 C-47 25.67 -47 25.34 -47 25 C-45.88625 24.814375 -44.7725 24.62875 -43.625 24.4375 C-42.42875 23.963125 -41.2325 23.48875 -40 23 C-38.50774489 19.61056524 -38.50774489 19.61056524 -38 16 C-37.67 15.01 -37.34 14.02 -37 13 C-36.34 13 -35.68 13 -35 13 C-33 16 -33 16 -32.125 19.125 C-31.75375 20.07375 -31.3825 21.0225 -31 22 C-28.81903388 22.95417268 -27.35817766 23 -25 23 C-24.896875 22.443125 -24.79375 21.88625 -24.6875 21.3125 C-23.85821592 18.5230899 -22.65700944 16.3860936 -21 14 C-20.34 14 -19.68 14 -19 14 C-17.515 18.455 -17.515 18.455 -16 23 C-12.37 23 -8.74 23 -5 23 C-4.59007812 22.24074219 -4.18015625 21.48148438 -3.7578125 20.69921875 C-3.21898437 19.70535156 -2.68015625 18.71148437 -2.125 17.6875 C-1.59132812 16.70136719 -1.05765625 15.71523437 -0.5078125 14.69921875 C1 12 1 12 3 9 C4.32 9.33 5.64 9.66 7 10 C7 11.65 7 13.3 7 15 C5.68 15 4.36 15 3 15 C3 15.99 3 16.98 3 18 C5.64 18 8.28 18 11 18 C11.20625 18.639375 11.4125 19.27875 11.625 19.9375 C12.89538209 22.34925077 12.89538209 22.34925077 16.125 22.75 C17.07375 22.8325 18.0225 22.915 19 23 C18.01 21.515 18.01 21.515 17 20 C17 18.68 17 17.36 17 16 C16.01 15.67 15.02 15.34 14 15 C11.2332241 12.02827774 11 11.25809375 11 7 C10.34 7 9.68 7 9 7 C8.319375 5.7625 8.319375 5.7625 7.625 4.5 C7.08875 3.675 6.5525 2.85 6 2 C1.99653977 1.55709077 1.99653977 1.55709077 -0.25 4 C-1.11625 4.99 -1.11625 4.99 -2 6 C-2 4.68 -2 3.36 -2 2 C-1.34 2 -0.68 2 0 2 C0 1.34 0 0.68 0 0 Z M28 8 C28 9.32 28 10.64 28 12 C29.62490954 12.02698189 31.24994633 12.04638757 32.875 12.0625 C34.23238281 12.07990234 34.23238281 12.07990234 35.6171875 12.09765625 C38.0168585 12.16249257 38.0168585 12.16249257 40 11 C39.67 10.01 39.34 9.02 39 8 C35.37 8 31.74 8 28 8 Z M18 15 C19 18 19 18 19 18 Z M46 16 C46 16.66 46 17.32 46 18 C46.66 18 47.32 18 48 18 C48 17.34 48 16.68 48 16 C47.34 16 46.68 16 46 16 Z " fill="#D0D2EA" transform="translate(226,65)"/>
<path d="M0 0 C1.125 3.75 1.125 3.75 0 6 C-0.31713725 9.63386433 -0.51171036 13.26847692 -0.71875 16.91015625 C-1 20 -1 20 -2 21 C-2.20968751 23.32986123 -2.36815389 25.66444036 -2.5 28 C-2.88888889 34.88888889 -2.88888889 34.88888889 -4 36 C2.27 36.33 8.54 36.66 15 37 C15 38.32 15 39.64 15 41 C14.34 41 13.68 41 13 41 C13 41.66 13 42.32 13 43 C6.28551428 47.97169164 -1.45069631 52.04685351 -10 51 C-14.19030951 49.3766549 -18.11849161 47.54166821 -21 44 C-21 43.01 -21 42.02 -21 41 C-21.66 41 -22.32 41 -23 41 C-25.92149029 34.58895186 -25.82931707 28.05810668 -24 21.3125 C-23.67 20.549375 -23.34 19.78625 -23 19 C-22.34 19 -21.68 19 -21 19 C-21 17.68 -21 16.36 -21 15 C-20.34 15 -19.68 15 -19 15 C-18.8453125 14.13375 -18.8453125 14.13375 -18.6875 13.25 C-17.89103535 10.64338842 -16.80934723 9.0264689 -15 7 C-14.34 7 -13.68 7 -13 7 C-13 6.34 -13 5.68 -13 5 C-11.58957044 4.15615325 -10.17135868 3.32530504 -8.75 2.5 C-7.56664062 1.80390625 -7.56664062 1.80390625 -6.359375 1.09375 C-4 0 -4 0 0 0 Z " fill="#4E569A" transform="translate(189,12)"/>
<path d="M0 0 C2.65795898 -0.34057617 2.65795898 -0.34057617 5.99609375 -0.29296875 C7.79336914 -0.2784668 7.79336914 -0.2784668 9.62695312 -0.26367188 C10.88443359 -0.23853516 12.14191406 -0.21339844 13.4375 -0.1875 C15.31791992 -0.16719727 15.31791992 -0.16719727 17.23632812 -0.14648438 C19.56185308 -0.12024256 21.88732205 -0.08787204 24.21264648 -0.04760742 C26.14154826 -0.01466218 28.07081689 0 30 0 C34 0 38 0 42 0 C42 0.66 42 1.32 42 2 C42.66 2 43.32 2 44 2 C44 1.34 44 0.68 44 0 C45.32 0 46.64 0 48 0 C48 2.64 48 5.28 48 8 C49.98 8 51.96 8 54 8 C54 5.69 54 3.38 54 1 C57.99795892 0.04380267 61.70803922 -0.1039592 65.8125 -0.0625 C66.97394531 -0.05347656 68.13539063 -0.04445313 69.33203125 -0.03515625 C70.21246094 -0.02355469 71.09289062 -0.01195313 72 0 C72.29296875 6.0546875 72.29296875 6.0546875 72 8 C66.70996907 11.52668729 61.71831544 12.30089078 55.4375 12.6875 C54.15746094 12.77386719 52.87742188 12.86023438 51.55859375 12.94921875 C48.4490733 12.99359171 46.01106157 12.63045678 43 12 C40.62904795 12.12675998 40.62904795 12.12675998 38.25 12.5 C33.29487231 13.0877704 28.93001856 12.71564785 24 12 C24 11.34 24 10.68 24 10 C22.02 10 20.04 10 18 10 C18 10.66 18 11.32 18 12 C17.37351563 12.06058594 16.74703125 12.12117188 16.1015625 12.18359375 C15.28429687 12.26738281 14.46703125 12.35117188 13.625 12.4375 C12.81289062 12.51871094 12.00078125 12.59992188 11.1640625 12.68359375 C8.95727195 12.89090114 8.95727195 12.89090114 7 14 C0.38888889 12.58333333 0.38888889 12.58333333 -2 9 C-2.33957563 4.92509248 -2.31332486 3.46998729 0 0 Z M34 4 C33.67 5.32 33.34 6.64 33 8 C34.65 8 36.3 8 38 8 C38 6.68 38 5.36 38 4 C36.68 4 35.36 4 34 4 Z " fill="#E7E7E7" transform="translate(122,93)"/>
<path d="M0 0 C4.52220645 0.79803643 8.87816169 1.93908085 13 4 C13 4.66 13 5.32 13 6 C13.66 6 14.32 6 15 6 C17.1519437 9.22791555 17.20086443 10.28400809 17 14 C17.66 14 18.32 14 19 14 C19 18.62 19 23.24 19 28 C18.34 28 17.68 28 17 28 C17 29.98 17 31.96 17 34 C16.34 34 15.68 34 15 34 C15 34.66 15 35.32 15 36 C8.4 36 1.8 36 -5 36 C-5.85669434 31.71652829 -6.01155483 28.99165568 -5.625 24.75 C-5.53476563 23.69296875 -5.44453125 22.6359375 -5.3515625 21.546875 C-5 19 -5 19 -4 18 C-3.75344883 14.76744024 -3.61578909 11.53572508 -3.4765625 8.296875 C-2.97395235 4.81980151 -2.00242709 2.84837222 0 0 Z " fill="#5F68A9" transform="translate(195,9)"/>
<path d="M0 0 C1.65 0 3.3 0 5 0 C7.59069779 4.31782964 9.40372786 8.21118359 11 13 C11.66 13.33 12.32 13.66 13 14 C13.103125 13.484375 13.20625 12.96875 13.3125 12.4375 C14.58186476 7.93702494 16.40966154 3.88550769 19 0 C20.8984375 0.2109375 20.8984375 0.2109375 23 1 C23.9765625 3.0390625 23.9765625 3.0390625 24.625 5.625 C24.86476562 6.52347656 25.10453125 7.42195313 25.3515625 8.34765625 C25.74545988 9.95883891 26.13679386 11.570655 26.5234375 13.18359375 C26.93627925 14.81127312 27.45884832 16.41036693 28 18 C28.99 18.33 29.98 18.66 31 19 C31.66 17.35 32.32 15.7 33 14 C33.66 14 34.32 14 35 14 C35.10183594 13.27425781 35.20367187 12.54851562 35.30859375 11.80078125 C36.07339613 8.70268347 37.23748505 6.78911705 39.0625 4.1875 C39.61035156 3.39730469 40.15820312 2.60710937 40.72265625 1.79296875 C41.14417969 1.20128906 41.56570312 0.60960938 42 0 C46.75 0.75 46.75 0.75 49 3 C49 3.99 49 4.98 49 6 C49.66 6 50.32 6 51 6 C51.2475 6.7425 51.495 7.485 51.75 8.25 C52.821778 11.07161899 52.821778 11.07161899 55 12.875 C57.61948553 15.65820337 58.1521299 18.32589625 59 22 C56.125 22.125 56.125 22.125 53 22 C52.34 21.34 51.68 20.68 51 20 C51 19.01 51 18.02 51 17 C48.36 17 45.72 17 43 17 C43 16.01 43 15.02 43 14 C44.32 14 45.64 14 47 14 C47 12.35 47 10.7 47 9 C45.68 8.67 44.36 8.34 43 8 C41.90859545 10.1777328 40.8233743 12.35820353 39.74609375 14.54296875 C39.31425781 15.41566406 38.88242188 16.28835937 38.4375 17.1875 C38.00308594 18.06792969 37.56867188 18.94835937 37.12109375 19.85546875 C36 22 36 22 35 23 C31.29136732 23.42280829 27.70278505 23.49259771 24 23 C21.35111106 20.35111106 21.05834231 18.87513469 20.8125 15.1875 C20.874375 14.465625 20.93625 13.74375 21 13 C17.68682805 14.7924166 17.68682805 14.7924166 16.625 18.5625 C15 22 15 22 12.5 23.125 C10 23 10 23 8.3125 22.0625 C6.29999397 18.89999053 5.77956783 15.65797214 5 12 C4.34 12 3.68 12 3 12 C2.87625 12.556875 2.7525 13.11375 2.625 13.6875 C1.2972973 18.6 1.2972973 18.6 0 21 C-2.625 21.8125 -2.625 21.8125 -5 22 C-4.79890625 21.00033203 -4.79890625 21.00033203 -4.59375 19.98046875 C-4.15041826 17.75506007 -3.71404479 15.52826312 -3.28125 13.30078125 C-3.02088543 11.97134396 -2.76046775 10.64191708 -2.5 9.3125 C-2.30470703 8.29833008 -2.30470703 8.29833008 -2.10546875 7.26367188 C-1.11295413 2.22590825 -1.11295413 2.22590825 0 0 Z " fill="#5D62A1" transform="translate(186,66)"/>
<path d="M0 0 C9.23076923 -0.49230769 9.23076923 -0.49230769 13.125 2 C13.74375 2.66 14.3625 3.32 15 4 C15.33 2.68 15.66 1.36 16 0 C21.94 0 27.88 0 34 0 C34 0.66 34 1.32 34 2 C34.66 2 35.32 2 36 2 C36 1.34 36 0.68 36 0 C37.32 0 38.64 0 40 0 C40 2.64 40 5.28 40 8 C40.66 8 41.32 8 42 8 C42 6.68 42 5.36 42 4 C42.66 4 43.32 4 44 4 C44.33 2.68 44.66 1.36 45 0 C46.98 0 48.96 0 51 0 C51.495 1.98 51.495 1.98 52 4 C52.66 4 53.32 4 54 4 C54 5.32 54 6.64 54 8 C54.66 8 55.32 8 56 8 C56 9.32 56 10.64 56 12 C55.37955811 11.99476318 54.75911621 11.98952637 54.11987305 11.98413086 C51.30909233 11.96334534 48.49832779 11.95033483 45.6875 11.9375 C44.71103516 11.92912109 43.73457031 11.92074219 42.72851562 11.91210938 C41.79072266 11.90888672 40.85292969 11.90566406 39.88671875 11.90234375 C39.02264404 11.89710693 38.15856934 11.89187012 37.26831055 11.88647461 C34.83271286 11.90664477 34.83271286 11.90664477 32 13 C29.48818571 13.09617307 27.01083378 13.13934762 24.5 13.125 C23.82324219 13.12886719 23.14648438 13.13273437 22.44921875 13.13671875 C19.35926233 13.13062416 16.95320689 12.9844023 14 12 C14 11.34 14 10.68 14 10 C13.01 9.67 12.02 9.34 11 9 C10.01 10.485 10.01 10.485 9 12 C2.7 13.35 2.7 13.35 0 12 C0 8.04 0 4.08 0 0 Z M26 4 C26 5.32 26 6.64 26 8 C27.32 8 28.64 8 30 8 C30 6.68 30 5.36 30 4 C28.68 4 27.36 4 26 4 Z " fill="#D9D9DA" transform="translate(200,93)"/>
<path d="M0 0 C2.64 0 5.28 0 8 0 C8 5.28 8 10.56 8 16 C13.28 16 18.56 16 24 16 C24 15.34 24 14.68 24 14 C24.66 14 25.32 14 26 14 C26.144375 13.38125 26.28875 12.7625 26.4375 12.125 C27 10 27 10 28 8 C28.66 8 29.32 8 30 8 C30 6.68 30 5.36 30 4 C30.66 4 31.32 4 32 4 C32.66 2.68 33.32 1.36 34 0 C36.64 0 39.28 0 42 0 C42 1.32 42 2.64 42 4 C42.66 4 43.32 4 44 4 C44 4.66 44 5.32 44 6 C44.66 6 45.32 6 46 6 C46 7.32 46 8.64 46 10 C46.66 10 47.32 10 48 10 C48.99 11.98 49.98 13.96 51 16 C51.33 10.72 51.66 5.44 52 0 C60 0 60 0 62.93359375 1.93359375 C63.75988281 2.75988281 64.58617187 3.58617188 65.4375 4.4375 C66.28183594 5.26121094 67.12617188 6.08492188 67.99609375 6.93359375 C68.65738281 7.61550781 69.31867188 8.29742187 70 9 C70.495 9.495 70.495 9.495 71 10 C71.33 6.7 71.66 3.4 72 0 C81.9 0 91.8 0 102 0 C102 0.66 102 1.32 102 2 C102.99 2 103.98 2 105 2 C107.1875 4 107.1875 4 109 6 C109.66 4.02 110.32 2.04 111 0 C114.375 -0.125 114.375 -0.125 118 0 C120 2 120 2 120 6 C120.66 6 121.32 6 122 6 C122.495 7.98 122.495 7.98 123 10 C125.1385485 7.8614515 125.42655063 6.86724686 126 4 C126.66 4 127.32 4 128 4 C128 2.68 128 1.36 128 0 C129.27875 -0.061875 130.5575 -0.12375 131.875 -0.1875 C132.95394531 -0.23970703 132.95394531 -0.23970703 134.0546875 -0.29296875 C134.69664062 -0.19628906 135.33859375 -0.09960938 136 0 C138.4849427 3.72741406 139.17621888 7.28412382 140.21875 11.6015625 C140.4765625 12.39304687 140.734375 13.18453125 141 14 C141.99 14.495 141.99 14.495 143 15 C143.33 14.01 143.66 13.02 144 12 C144.66 12 145.32 12 146 12 C146.66 10.02 147.32 8.04 148 6 C148.66 6 149.32 6 150 6 C149.01 8.97 148.02 11.94 147 15 C146.34 15 145.68 15 145 15 C144.34 16.65 143.68 18.3 143 20 C141.68 19.67 140.36 19.34 139 19 C138.80664062 18.19175781 138.61328125 17.38351563 138.4140625 16.55078125 C138.15367187 15.48214844 137.89328125 14.41351563 137.625 13.3125 C137.36976563 12.25675781 137.11453125 11.20101562 136.8515625 10.11328125 C136.07186014 7.26271802 135.32389794 4.64303366 134 2 C133.01 1.67 132.02 1.34 131 1 C130.62875 1.9590625 130.62875 1.9590625 130.25 2.9375 C128.59188428 6.99988351 126.7964416 10.99724906 125 15 C122 14 122 14 120.8671875 12.07421875 C120.37605469 10.89279297 120.37605469 10.89279297 119.875 9.6875 C119.37613281 8.51767578 119.37613281 8.51767578 118.8671875 7.32421875 C118.08449614 5.22646488 117.48940602 3.18235134 117 1 C115.35 1 113.7 1 112 1 C111.896875 2.093125 111.79375 3.18625 111.6875 4.3125 C111.02692273 7.85559629 110.7972908 8.93243723 108 11 C107.505 9.515 107.505 9.515 107 8 C101.62246547 3.14681545 101.62246547 3.14681545 94.8671875 1.68359375 C94.06152344 1.64169922 93.25585938 1.59980469 92.42578125 1.55664062 C91.58402344 1.51732422 90.74226563 1.47800781 89.875 1.4375 C89.02550781 1.39431641 88.17601562 1.35113281 87.30078125 1.30664062 C85.20071777 1.20045764 83.10038052 1.09971503 81 1 C80.67 2.65 80.34 4.3 80 6 C79.67 6 79.34 6 79 6 C79 4.35 79 2.7 79 1 C77.02 1 75.04 1 73 1 C73 4.96 73 8.92 73 13 C67.43177959 10.77271183 64.61656558 8.01525821 60.40234375 3.8984375 C57.9872599 1.58665567 57.9872599 1.58665567 54 2 C53.67 7.94 53.34 13.88 53 20 C52.34 20 51.68 20 51 20 C50.34 18.35 49.68 16.7 49 15 C48.34 15 47.68 15 47 15 C47 13.68 47 12.36 47 11 C46.34 11 45.68 11 45 11 C43.41524658 8.75870587 42.04100872 6.4220015 40.6328125 4.06640625 C38.80123461 1.74845241 37.8781214 1.3426335 35 1 C35 1.66 35 2.32 35 3 C34.34 3 33.68 3 33 3 C32.9175 3.53625 32.835 4.0725 32.75 4.625 C31.73812625 7.82926688 29.87187568 10.22054824 28 13 C27.32033324 14.66140763 26.65061095 16.32700041 26 18 C25.34 18.66 24.68 19.32 24 20 C21.07169646 19.98246525 18.28459799 19.86068013 15.375 19.625 C12.61125 19.41875 9.8475 19.2125 7 19 C7 13.06 7 7.12 7 1 C5.02 1 3.04 1 1 1 C1 8.92 1 16.84 1 25 C10.24 25 19.48 25 29 25 C29 25.33 29 25.66 29 26 C19.43 26 9.86 26 0 26 C-0.185625 23.195 -0.37125 20.39 -0.5625 17.5 C-0.62381104 16.63310547 -0.68512207 15.76621094 -0.74829102 14.87304688 C-1.05842732 9.75782672 -0.78423995 5.06560915 0 0 Z " fill="#DADDF1" transform="translate(74,65)"/>
<path d="M0 0 C1.98 0 3.96 0 6 0 C6 5.94 6 11.88 6 18 C10.145625 18.061875 10.145625 18.061875 14.375 18.125 C15.24431152 18.14320801 16.11362305 18.16141602 17.00927734 18.18017578 C19.00703478 18.19473738 21.00467217 18.09956726 23 18 C25.17576 15.82424 25.98456631 13.76555866 27.13671875 10.953125 C28.5197083 7.82418937 30.25868661 4.94221918 32 2 C32.66 2 33.32 2 34 2 C34 1.34 34 0.68 34 0 C36.1875 0.0625 36.1875 0.0625 39 1 C41.38627358 3.56685645 44 6.38918448 44 10 C44.66 10 45.32 10 46 10 C46 11.32 46 12.64 46 14 C46.66 14 47.32 14 48 14 C48.495 17.465 48.495 17.465 49 21 C47.35 20.67 45.7 20.34 44 20 C44 19.01 44 18.02 44 17 C41.03 17 38.06 17 35 17 C35.495 15.515 35.495 15.515 36 14 C37.32 14 38.64 14 40 14 C39.505 11.525 39.505 11.525 39 9 C35.04485379 10.28275012 33.13270248 11.41318219 31 15 C30.46604919 16.22352547 29.94591296 17.45314417 29.4375 18.6875 C28 22 28 22 26 23 C24.0406396 23.08510205 22.07837206 23.10717656 20.1171875 23.09765625 C18.95058594 23.09443359 17.78398438 23.09121094 16.58203125 23.08789062 C15.35871094 23.07951172 14.13539062 23.07113281 12.875 23.0625 C11.64394531 23.05798828 10.41289063 23.05347656 9.14453125 23.04882812 C6.09633361 23.03701341 3.04816084 23.0190775 0 23 C0 15.41 0 7.82 0 0 Z " fill="#666CA5" transform="translate(75,66)"/>
<path d="M0 0 C1.22589844 0.01353516 1.22589844 0.01353516 2.4765625 0.02734375 C3.41628906 0.04474609 3.41628906 0.04474609 4.375 0.0625 C4.375 0.7225 4.375 1.3825 4.375 2.0625 C5.695 2.0625 7.015 2.0625 8.375 2.0625 C8.375 6.0225 8.375 9.9825 8.375 14.0625 C14.315 14.0625 20.255 14.0625 26.375 14.0625 C25.715 15.3825 25.055 16.7025 24.375 18.0625 C23.385 18.0625 22.395 18.0625 21.375 18.0625 C20.715 19.3825 20.055 20.7025 19.375 22.0625 C18.055 22.0625 16.735 22.0625 15.375 22.0625 C15.375 22.7225 15.375 23.3825 15.375 24.0625 C9.38199215 24.31220866 4.01741692 24.24027495 -1.625 22.0625 C-3.125 18.9375 -3.125 18.9375 -3.625 16.0625 C-1.315 16.0625 0.995 16.0625 3.375 16.0625 C3.375 15.4025 3.375 14.7425 3.375 14.0625 C2.73691406 14.07410156 2.09882813 14.08570313 1.44140625 14.09765625 C0.20197266 14.11119141 0.20197266 14.11119141 -1.0625 14.125 C-2.29806641 14.14240234 -2.29806641 14.14240234 -3.55859375 14.16015625 C-5.625 14.0625 -5.625 14.0625 -6.625 13.0625 C-6.66580783 11.06291636 -6.66754356 9.06204746 -6.625 7.0625 C-5.635 7.5575 -5.635 7.5575 -4.625 8.0625 C-3.25157169 8.1314472 -1.87497898 8.14717708 -0.5 8.125 C0.77875 8.104375 2.0575 8.08375 3.375 8.0625 C3.375 7.4025 3.375 6.7425 3.375 6.0625 C0.735 6.0625 -1.905 6.0625 -4.625 6.0625 C-4.625 5.4025 -4.625 4.7425 -4.625 4.0625 C-1.985 4.0625 0.655 4.0625 3.375 4.0625 C3.375 3.4025 3.375 2.7425 3.375 2.0625 C0.405 2.0625 -2.565 2.0625 -5.625 2.0625 C-5.955 2.7225 -6.285 3.3825 -6.625 4.0625 C-6.625 3.0725 -6.625 2.0825 -6.625 1.0625 C-4.21954362 -0.14022819 -2.67503047 -0.03821472 0 0 Z " fill="#585FA2" transform="translate(174.625,35.9375)"/>
<path d="M0 0 C6.93 0 13.86 0 21 0 C21 0.66 21 1.32 21 2 C21.99 2 22.98 2 24 2 C24 2.66 24 3.32 24 4 C24.66 4 25.32 4 26 4 C26 6.97 26 9.94 26 13 C25.01 13.33 24.02 13.66 23 14 C23 15.32 23 16.64 23 18 C23.99 18.33 24.98 18.66 26 19 C26 19.99 26 20.98 26 22 C24.02 22 22.04 22 20 22 C20 21.01 20 20.02 20 19 C16.37 18.34 12.74 17.68 9 17 C9.33 15.35 9.66 13.7 10 12 C13.3 12 16.6 12 20 12 C20 10.02 20 8.04 20 6 C15.05 6 10.1 6 5 6 C5 11.28 5 16.56 5 22 C3.35 22 1.7 22 0 22 C0 14.74 0 7.48 0 0 Z " fill="#4C5397" transform="translate(247,66)"/>
<path d="M0 0 C4.75 0.75 4.75 0.75 7 3 C7 3.99 7 4.98 7 6 C7.66 6 8.32 6 9 6 C9.2475 6.7425 9.495 7.485 9.75 8.25 C10.821778 11.07161899 10.821778 11.07161899 13 12.875 C15.61948553 15.65820337 16.1521299 18.32589625 17 22 C14.125 22.125 14.125 22.125 11 22 C10.34 21.34 9.68 20.68 9 20 C9 19.01 9 18.02 9 17 C6.36 17 3.72 17 1 17 C1 16.01 1 15.02 1 14 C2.32 14 3.64 14 5 14 C5 12.35 5 10.7 5 9 C3.68 8.67 2.36 8.34 1 8 C-0.09140455 10.1777328 -1.1766257 12.35820353 -2.25390625 14.54296875 C-2.90166016 15.85201172 -2.90166016 15.85201172 -3.5625 17.1875 C-3.99691406 18.06792969 -4.43132812 18.94835937 -4.87890625 19.85546875 C-6 22 -6 22 -7 23 C-10.70863268 23.42280829 -14.29721495 23.49259771 -18 23 C-20.64888894 20.35111106 -20.94165769 18.87513469 -21.1875 15.1875 C-21.125625 14.465625 -21.06375 13.74375 -21 13 C-22.98 13.99 -22.98 13.99 -25 15 C-24.34 13.35 -23.68 11.7 -23 10 C-22.01 10 -21.02 10 -20 10 C-20 11.65 -20 13.3 -20 15 C-19.34 15 -18.68 15 -18 15 C-18 16.98 -18 18.96 -18 21 C-17.34 20.67 -16.68 20.34 -16 20 C-16.33 17.03 -16.66 14.06 -17 11 C-16.34 11.33 -15.68 11.66 -15 12 C-14.375 15.0625 -14.375 15.0625 -14 18 C-13.01 18.33 -12.02 18.66 -11 19 C-10.34 17.35 -9.68 15.7 -9 14 C-8.34 14 -7.68 14 -7 14 C-6.89816406 13.27425781 -6.79632813 12.54851562 -6.69140625 11.80078125 C-5.92660387 8.70268347 -4.76251495 6.78911705 -2.9375 4.1875 C-2.38964844 3.39730469 -1.84179688 2.60710937 -1.27734375 1.79296875 C-0.85582031 1.20128906 -0.43429688 0.60960938 0 0 Z " fill="#4E5799" transform="translate(228,66)"/>
<path d="M0 0 C4.43038809 1.10759702 5.75628969 2.34707478 9 5.4375 C12.03817168 8.32283683 14.20401198 10.10200599 18 12 C18 8.04 18 4.08 18 0 C19.98 0 21.96 0 24 0 C24 7.26 24 14.52 24 22 C22.35 22.33 20.7 22.66 19 23 C16.54296875 21.19921875 16.54296875 21.19921875 14.1875 18.6875 C13.39730469 17.86636719 12.60710937 17.04523438 11.79296875 16.19921875 C10 14 10 14 10 12 C9.34 12 8.68 12 8 12 C8 11.34 8 10.68 8 10 C6.68 9.67 5.36 9.34 4 9 C4 13.29 4 17.58 4 22 C2.68 22 1.36 22 0 22 C0 14.74 0 7.48 0 0 Z " fill="#333B8A" transform="translate(129,66)"/>
<path d="M0 0 C1.125 3.75 1.125 3.75 0 6 C-0.31713725 9.63386433 -0.51171036 13.26847692 -0.71875 16.91015625 C-1 20 -1 20 -2 21 C-2.20968751 23.32986123 -2.36815389 25.66444036 -2.5 28 C-2.88888889 34.88888889 -2.88888889 34.88888889 -4 36 C2.27 36.33 8.54 36.66 15 37 C15 38.32 15 39.64 15 41 C14.34 41 13.68 41 13 41 C13 41.66 13 42.32 13 43 C6.28551428 47.97169164 -1.45069631 52.04685351 -10 51 C-14.19030951 49.3766549 -18.11849161 47.54166821 -21 44 C-21 43.01 -21 42.02 -21 41 C-21.66 41 -22.32 41 -23 41 C-25.92149029 34.58895186 -25.82931707 28.05810668 -24 21.3125 C-23.67 20.549375 -23.34 19.78625 -23 19 C-22.34 19 -21.68 19 -21 19 C-21 17.68 -21 16.36 -21 15 C-20.34 15 -19.68 15 -19 15 C-18.8453125 14.13375 -18.8453125 14.13375 -18.6875 13.25 C-17.89103535 10.64338842 -16.80934723 9.0264689 -15 7 C-14.34 7 -13.68 7 -13 7 C-13 6.34 -13 5.68 -13 5 C-11.58957044 4.15615325 -10.17135868 3.32530504 -8.75 2.5 C-7.56664062 1.80390625 -7.56664062 1.80390625 -6.359375 1.09375 C-4 0 -4 0 0 0 Z M-10.25 5.3125 C-10.95640625 5.92738281 -11.6628125 6.54226562 -12.390625 7.17578125 C-14.33078426 8.96949809 -14.33078426 8.96949809 -14 12 C-14.66 12 -15.32 12 -16 12 C-16 12.99 -16 13.98 -16 15 C-16.99 15.33 -17.98 15.66 -19 16 C-21.95838381 20.56635242 -22.492489 24.68106427 -22.4375 30 C-22.45748047 30.68578125 -22.47746094 31.3715625 -22.49804688 32.078125 C-22.49219069 38.21541148 -20.24020437 41.75979563 -16 46 C-10.20333836 47.83052473 -5.05361582 48.25223399 1 48 C1 47.34 1 46.68 1 46 C3.475 45.505 3.475 45.505 6 45 C6.33 44.01 6.66 43.02 7 42 C8.33333333 41.66666667 9.66666667 41.33333333 11 41 C11.33 40.01 11.66 39.02 12 38 C6.06 38 0.12 38 -6 38 C-5.67 35.9375 -5.34 33.875 -5 31.75 C-4.04016832 25.11229075 -3.77928337 18.69507102 -4 12 C-3.34 12 -2.68 12 -2 12 C-2 8.7 -2 5.4 -2 2 C-6.50472209 2 -7.04801298 2.4485005 -10.25 5.3125 Z " fill="#C9CDE5" transform="translate(189,12)"/>
<path d="M0 0 C2.97 0 5.94 0 9 0 C6.5484293 4.9031414 4.91530204 5.01663251 0 7 C-1.75149165 8.58245275 -1.75149165 8.58245275 -3 10 C-3.66 10 -4.32 10 -5 10 C-4.67 11.32 -4.34 12.64 -4 14 C-3.29875 14.061875 -2.5975 14.12375 -1.875 14.1875 C2.08915867 15.30780571 4.02216113 17.16066526 7 20 C7 20.66 7 21.32 7 22 C-0.42857143 22.28571429 -0.42857143 22.28571429 -4 20 C-4 19.34 -4 18.68 -4 18 C-4.5775 17.71125 -5.155 17.4225 -5.75 17.125 C-7.83333333 16.08333333 -9.91666667 15.04166667 -12 14 C-12 16.64 -12 19.28 -12 22 C-13.65 21.67 -15.3 21.34 -17 21 C-17 14.4 -17 7.8 -17 1 C-15.35 1 -13.7 1 -12 1 C-12 3.64 -12 6.28 -12 9 C-11.30132812 8.4946875 -10.60265625 7.989375 -9.8828125 7.46875 C-8.51769531 6.49421875 -8.51769531 6.49421875 -7.125 5.5 C-6.22007812 4.8503125 -5.31515625 4.200625 -4.3828125 3.53125 C-2 2 -2 2 0 2 C0 1.34 0 0.68 0 0 Z " fill="#3F4491" transform="translate(293,66)"/>
<path d="M0 0 C2.65795898 -0.34057617 2.65795898 -0.34057617 5.99609375 -0.29296875 C7.79336914 -0.2784668 7.79336914 -0.2784668 9.62695312 -0.26367188 C10.88443359 -0.23853516 12.14191406 -0.21339844 13.4375 -0.1875 C15.31791992 -0.16719727 15.31791992 -0.16719727 17.23632812 -0.14648438 C19.56185308 -0.12024256 21.88732205 -0.08787204 24.21264648 -0.04760742 C26.14154826 -0.01466218 28.07081689 0 30 0 C34 0 38 0 42 0 C41.67 0.66 41.34 1.32 41 2 C37.7 1.67 34.4 1.34 31 1 C31 1.66 31 2.32 31 3 C33.64 3 36.28 3 39 3 C39.38218767 4.65614657 39.71395102 6.32457024 40 8 C39 9 39 9 35.4375 9.0625 C34.303125 9.041875 33.16875 9.02125 32 9 C31.505 6.525 31.505 6.525 31 4 C30.34 4 29.68 4 29 4 C29 5.65 29 7.3 29 9 C28.01 9.495 28.01 9.495 27 10 C26.855625 8.865625 26.71125 7.73125 26.5625 6.5625 C26.38828522 3.19222799 26.38828522 3.19222799 25 2 C23.31816052 1.76712992 21.6287584 1.58735834 19.9375 1.4375 C18.308125 1.293125 16.67875 1.14875 15 1 C15 4.3 15 7.6 15 11 C15.99 10.67 16.98 10.34 18 10 C18 10.66 18 11.32 18 12 C17.37351563 12.06058594 16.74703125 12.12117188 16.1015625 12.18359375 C15.28429687 12.26738281 14.46703125 12.35117188 13.625 12.4375 C12.81289062 12.51871094 12.00078125 12.59992188 11.1640625 12.68359375 C8.95727195 12.89090114 8.95727195 12.89090114 7 14 C0.38888889 12.58333333 0.38888889 12.58333333 -2 9 C-2.33957563 4.92509248 -2.31332486 3.46998729 0 0 Z M34 4 C33.67 5.32 33.34 6.64 33 8 C34.65 8 36.3 8 38 8 C38 6.68 38 5.36 38 4 C36.68 4 35.36 4 34 4 Z " fill="#E4E4E4" transform="translate(122,93)"/>
<path d="M0 0 C9.23076923 -0.49230769 9.23076923 -0.49230769 13.125 2 C13.74375 2.66 14.3625 3.32 15 4 C15.33 2.68 15.66 1.36 16 0 C18.475 0.495 18.475 0.495 21 1 C21 4.3 21 7.6 21 11 C24.96 11 28.92 11 33 11 C32.67 11.66 32.34 12.32 32 13 C29.56242587 13.02698422 27.12515085 13.04683099 24.6875 13.0625 C23.99720703 13.07087891 23.30691406 13.07925781 22.59570312 13.08789062 C19.4516975 13.10307906 17.00579981 13.00193327 14 12 C14 11.34 14 10.68 14 10 C13.01 9.67 12.02 9.34 11 9 C10.01 10.485 10.01 10.485 9 12 C2.7 13.35 2.7 13.35 0 12 C0 8.04 0 4.08 0 0 Z " fill="#E7E7E7" transform="translate(200,93)"/>
<path d="M0 0 C4.95 0 9.9 0 15 0 C15 0.66 15 1.32 15 2 C16.32 2 17.64 2 19 2 C19 2.66 19 3.32 19 4 C19.99 4 20.98 4 22 4 C22 4.99 22 5.98 22 7 C22.99 7 23.98 7 25 7 C25.50341475 12.2858549 24.26910671 14.86554151 21 19 C18.65147472 20.17426264 17.26225935 20.11508173 14.6484375 20.09765625 C13.88192871 20.09515869 13.11541992 20.09266113 12.32568359 20.09008789 C11.35195801 20.08098389 10.37823242 20.07187988 9.375 20.0625 C6.28125 20.041875 3.1875 20.02125 0 20 C0 13.4 0 6.8 0 0 Z M4 4 C3.92741054 6.18639453 3.91626217 8.37500389 3.9375 10.5625 C3.94652344 11.76003906 3.95554688 12.95757812 3.96484375 14.19140625 C3.97644531 15.11824219 3.98804688 16.04507813 4 17 C6.12438339 17.08078641 8.2496323 17.13909141 10.375 17.1875 C11.55835938 17.22230469 12.74171875 17.25710937 13.9609375 17.29296875 C14.96382812 17.19628906 15.96671875 17.09960938 17 17 C19.20914 13.68629 19.22481553 12.6553979 19.125 8.8125 C19.10695312 7.91144531 19.08890625 7.01039062 19.0703125 6.08203125 C19.04710937 5.39496094 19.02390625 4.70789063 19 4 C15.87645029 3.08259379 13.06313562 2.86539694 9.8125 2.875 C8.93207031 2.87242188 8.05164063 2.86984375 7.14453125 2.8671875 C5.01796809 2.76134967 5.01796809 2.76134967 4 4 Z " fill="#1F2981" transform="translate(156,67)"/>
<path d="M0 0 C1.49249268 0.01571045 1.49249268 0.01571045 3.01513672 0.03173828 C4.6296875 0.04140625 4.6296875 0.04140625 6.27685547 0.05126953 C7.40478516 0.06802734 8.53271484 0.08478516 9.69482422 0.10205078 C11.39832031 0.11558594 11.39832031 0.11558594 13.13623047 0.12939453 C15.94763721 0.1530198 18.7586272 0.18596065 21.56982422 0.22705078 C21.56982422 0.88705078 21.56982422 1.54705078 21.56982422 2.22705078 C22.55982422 2.55705078 23.54982422 2.88705078 24.56982422 3.22705078 C24.89982422 2.23705078 25.22982422 1.24705078 25.56982422 0.22705078 C28.20982422 0.22705078 30.84982422 0.22705078 33.56982422 0.22705078 C34.22982422 2.20705078 34.88982422 4.18705078 35.56982422 6.22705078 C36.22982422 6.22705078 36.88982422 6.22705078 37.56982422 6.22705078 C37.56982422 5.56705078 37.56982422 4.90705078 37.56982422 4.22705078 C38.22982422 4.22705078 38.88982422 4.22705078 39.56982422 4.22705078 C39.56982422 3.56705078 39.56982422 2.90705078 39.56982422 2.22705078 C43.04645802 0.08368917 45.78211616 0.01427452 49.81982422 0.10205078 C50.89748047 0.12009766 51.97513672 0.13814453 53.08544922 0.15673828 C54.31521484 0.19154297 54.31521484 0.19154297 55.56982422 0.22705078 C55.56982422 1.54705078 55.56982422 2.86705078 55.56982422 4.22705078 C50.45871311 8.22705078 50.45871311 8.22705078 47.56982422 8.22705078 C47.56982422 8.88705078 47.56982422 9.54705078 47.56982422 10.22705078 C46.90982422 10.22705078 46.24982422 10.22705078 45.56982422 10.22705078 C45.56982422 10.88705078 45.56982422 11.54705078 45.56982422 12.22705078 C44.90982422 12.22705078 44.24982422 12.22705078 43.56982422 12.22705078 C43.56982422 12.88705078 43.56982422 13.54705078 43.56982422 14.22705078 C44.22982422 14.22705078 44.88982422 14.22705078 45.56982422 14.22705078 C45.23982422 14.88705078 44.90982422 15.54705078 44.56982422 16.22705078 C43.24982422 15.89705078 41.92982422 15.56705078 40.56982422 15.22705078 C40.07482422 13.24705078 40.07482422 13.24705078 39.56982422 11.22705078 C43.76389999 7.91758156 47.50719167 5.06800807 52.56982422 3.22705078 C52.89982422 2.56705078 53.22982422 1.90705078 53.56982422 1.22705078 C50.59982422 1.22705078 47.62982422 1.22705078 44.56982422 1.22705078 C44.56982422 1.88705078 44.56982422 2.54705078 44.56982422 3.22705078 C42.45263672 4.95361328 42.45263672 4.95361328 39.69482422 6.85205078 C38.78990234 7.48369141 37.88498047 8.11533203 36.95263672 8.76611328 C34.56982422 10.22705078 34.56982422 10.22705078 32.56982422 10.22705078 C32.56982422 7.25705078 32.56982422 4.28705078 32.56982422 1.22705078 C30.58982422 1.22705078 28.60982422 1.22705078 26.56982422 1.22705078 C26.56982422 7.82705078 26.56982422 14.42705078 26.56982422 21.22705078 C24.91982422 20.56705078 23.26982422 19.90705078 21.56982422 19.22705078 C21.56982422 17.90705078 21.56982422 16.58705078 21.56982422 15.22705078 C22.22982422 14.89705078 22.88982422 14.56705078 23.56982422 14.22705078 C24.03633629 12.10128296 24.03633629 12.10128296 24.19482422 9.66455078 C24.26958984 8.83826172 24.34435547 8.01197266 24.42138672 7.16064453 C24.47037109 6.52255859 24.51935547 5.88447266 24.56982422 5.22705078 C23.90982422 5.22705078 23.24982422 5.22705078 22.56982422 5.22705078 C22.56982422 4.56705078 22.56982422 3.90705078 22.56982422 3.22705078 C21.57982422 3.22705078 20.58982422 3.22705078 19.56982422 3.22705078 C19.56982422 2.56705078 19.56982422 1.90705078 19.56982422 1.22705078 C9.17482422 1.72205078 9.17482422 1.72205078 -1.43017578 2.22705078 C-1.76017578 8.16705078 -2.09017578 14.10705078 -2.43017578 20.22705078 C-3.09017578 19.56705078 -3.75017578 18.90705078 -4.43017578 18.22705078 C-4.10017578 17.23705078 -3.77017578 16.24705078 -3.43017578 15.22705078 C-4.42017578 14.89705078 -5.41017578 14.56705078 -6.43017578 14.22705078 C-5.77017578 14.22705078 -5.11017578 14.22705078 -4.43017578 14.22705078 C-4.45337891 13.38400391 -4.47658203 12.54095703 -4.50048828 11.67236328 C-4.51853516 10.57666016 -4.53658203 9.48095703 -4.55517578 8.35205078 C-4.57837891 7.26150391 -4.60158203 6.17095703 -4.62548828 5.04736328 C-4.37415825 1.4181577 -3.68695073 0.34447098 0 0 Z M23.56982422 16.22705078 C23.56982422 16.88705078 23.56982422 17.54705078 23.56982422 18.22705078 C24.22982422 18.22705078 24.88982422 18.22705078 25.56982422 18.22705078 C25.56982422 17.56705078 25.56982422 16.90705078 25.56982422 16.22705078 C24.90982422 16.22705078 24.24982422 16.22705078 23.56982422 16.22705078 Z " fill="#D9DEF0" transform="translate(248.43017578125,64.77294921875)"/>
<path d="M0 0 C1.32 0.33 2.64 0.66 4 1 C4 2.65 4 4.3 4 6 C2.68 6 1.36 6 0 6 C0 6.99 0 7.98 0 9 C1.258125 8.896875 2.51625 8.79375 3.8125 8.6875 C6.01953125 8.67578125 6.01953125 8.67578125 8 9 C10.02829372 11.40859879 11 12.83044309 11 16 C15.29 16 19.58 16 24 16 C24.33 15.34 24.66 14.68 25 14 C25 14.99 25 15.98 25 17 C22.56131832 17.1079859 20.12740867 17.18726589 17.6875 17.25 C16.99720703 17.28351563 16.30691406 17.31703125 15.59570312 17.3515625 C10.47198304 17.45057158 10.47198304 17.45057158 8.01953125 15.109375 C7 13 7 13 7 11 C3.04 11 -0.92 11 -5 11 C-5.33 12.32 -5.66 13.64 -6 15 C-8 17 -8 17 -10.8203125 17.1953125 C-11.91085938 17.17210938 -13.00140625 17.14890625 -14.125 17.125 C-15.22070312 17.10695313 -16.31640625 17.08890625 -17.4453125 17.0703125 C-18.28835937 17.04710938 -19.13140625 17.02390625 -20 17 C-21.32 14.36 -22.64 11.72 -24 9 C-24.639375 10.134375 -25.27875 11.26875 -25.9375 12.4375 C-27.875 15.875 -27.875 15.875 -29 17 C-31.79795619 17.2945217 -33.38315035 17.45692567 -35.6875 15.75 C-37.0648129 13.91358281 -38.0621541 12.09211779 -39 10 C-39.33 10 -39.66 10 -40 10 C-40.12375 10.969375 -40.2475 11.93875 -40.375 12.9375 C-40.58125 13.948125 -40.7875 14.95875 -41 16 C-43.95664519 17.4783226 -46.74229737 17.06032783 -50 17 C-50 16.67 -50 16.34 -50 16 C-48.329375 15.7215625 -48.329375 15.7215625 -46.625 15.4375 C-45.42875 14.963125 -44.2325 14.48875 -43 14 C-41.50774489 10.61056524 -41.50774489 10.61056524 -41 7 C-40.67 6.01 -40.34 5.02 -40 4 C-39.34 4 -38.68 4 -38 4 C-36 7 -36 7 -35.125 10.125 C-34.75375 11.07375 -34.3825 12.0225 -34 13 C-31.81903388 13.95417268 -30.35817766 14 -28 14 C-27.896875 13.443125 -27.79375 12.88625 -27.6875 12.3125 C-26.85821592 9.5230899 -25.65700944 7.3860936 -24 5 C-23.34 5 -22.68 5 -22 5 C-21.01 7.97 -20.02 10.94 -19 14 C-15.37 14 -11.74 14 -8 14 C-7.59007812 13.24074219 -7.18015625 12.48148438 -6.7578125 11.69921875 C-6.21898437 10.70535156 -5.68015625 9.71148437 -5.125 8.6875 C-4.59132812 7.70136719 -4.05765625 6.71523437 -3.5078125 5.69921875 C-2 3 -2 3 0 0 Z " fill="#DFE2F0" transform="translate(229,74)"/>
<path d="M0 0 C2.84625 -0.0825 5.6925 -0.165 8.625 -0.25 C9.51010254 -0.28641602 10.39520508 -0.32283203 11.30712891 -0.36035156 C16.67987913 -0.43532579 19.77556308 0.36377582 24 4 C24.875 6.25 24.875 6.25 25 8 C24.34 8 23.68 8 23 8 C23 7.01 23 6.02 23 5 C22.01 5 21.02 5 20 5 C20 4.34 20 3.68 20 3 C18.68 3 17.36 3 16 3 C16 2.34 16 1.68 16 1 C11.05 1 6.1 1 1 1 C1 7.6 1 14.2 1 21 C11.395 20.505 11.395 20.505 22 20 C21.67 20.66 21.34 21.32 21 22 C18.23434618 22.92188461 16.61716298 23.11785222 13.76953125 23.09765625 C13.04612549 23.09515869 12.32271973 23.09266113 11.57739258 23.09008789 C10.66497803 23.08098389 9.75256348 23.07187988 8.8125 23.0625 C5.904375 23.041875 2.99625 23.02125 0 23 C0 15.41 0 7.82 0 0 Z M8.14453125 3.8671875 C9.02496094 3.86976562 9.90539062 3.87234375 10.8125 3.875 C11.68519531 3.87242188 12.55789062 3.86984375 13.45703125 3.8671875 C15.78654215 3.98885166 17.76938015 4.34485291 20 5 C20.05416188 6.60379341 20.09286638 8.20811406 20.125 9.8125 C20.14820313 10.70582031 20.17140625 11.59914063 20.1953125 12.51953125 C20 15 20 15 18 18 C14.9609375 18.29296875 14.9609375 18.29296875 11.375 18.1875 C10.18648437 18.16042969 8.99796875 18.13335937 7.7734375 18.10546875 C6.85820312 18.07066406 5.94296875 18.03585938 5 18 C4.97314062 15.85423363 4.95366912 13.70837355 4.9375 11.5625 C4.92589844 10.36753906 4.91429687 9.17257813 4.90234375 7.94140625 C5.03120857 4.05999801 5.03120857 4.05999801 8.14453125 3.8671875 Z M7 7 C7 9.97 7 12.94 7 16 C12.08303686 16.11320856 12.08303686 16.11320856 17 15 C17 14.34 17 13.68 17 13 C17.66 13 18.32 13 19 13 C17.88145414 9.27385847 17.88145414 9.27385847 15 7 C13.62657169 6.9310528 12.24997898 6.91532292 10.875 6.9375 C8.956875 6.9684375 8.956875 6.9684375 7 7 Z " fill="#636AA4" transform="translate(155,66)"/>
<path d="M0 0 C4.52617865 0 6.97328801 0.16171844 11 2 C12.75 4.5625 12.75 4.5625 14 7 C14.66 7.33 15.32 7.66 16 8 C16 9.98 16 11.96 16 14 C15.01 14 14.02 14 13 14 C13 13.34 13 12.68 13 12 C10.03 12 7.06 12 4 12 C4 12.66 4 13.32 4 14 C6.64 14 9.28 14 12 14 C12 14.66 12 15.32 12 16 C9.36 16 6.72 16 4 16 C4 16.66 4 17.32 4 18 C6.31 18 8.62 18 11 18 C11 18.66 11 19.32 11 20 C8.36 20 5.72 20 3 20 C3 19.34 3 18.68 3 18 C1.68 18 0.36 18 -1 18 C-1 17.34 -1 16.68 -1 16 C0.32 16 1.64 16 3 16 C3 15.34 3 14.68 3 14 C1.68 14 0.36 14 -1 14 C-0.67 9.38 -0.34 4.76 0 0 Z " fill="#4D5598" transform="translate(195,12)"/>
<path d="M0 0 C4.52220645 0.79803643 8.87816169 1.93908085 13 4 C13 4.66 13 5.32 13 6 C13.66 6 14.32 6 15 6 C17.1519437 9.22791555 17.20086443 10.28400809 17 14 C17.66 14 18.32 14 19 14 C19 18.62 19 23.24 19 28 C18.34 28 17.68 28 17 28 C17 29.98 17 31.96 17 34 C16.34 34 15.68 34 15 34 C15 34.66 15 35.32 15 36 C8.4 36 1.8 36 -5 36 C-5.85669434 31.71652829 -6.01155483 28.99165568 -5.625 24.75 C-5.53476563 23.69296875 -5.44453125 22.6359375 -5.3515625 21.546875 C-5 19 -5 19 -4 18 C-3.75344883 14.76744024 -3.61578909 11.53572508 -3.4765625 8.296875 C-2.97395235 4.81980151 -2.00242709 2.84837222 0 0 Z M0 3 C-0.6776274 6.83147834 -1.34009767 10.66543241 -2 14.5 C-2.28617188 16.11648437 -2.28617188 16.11648437 -2.578125 17.765625 C-2.75859375 18.82265625 -2.9390625 19.8796875 -3.125 20.96875 C-3.29257813 21.93232422 -3.46015625 22.89589844 -3.6328125 23.88867188 C-4.06714294 27.56892931 -4 31.29420215 -4 35 C1.61 35 7.22 35 13 35 C16.63807879 27.04170265 18.83019144 19.61838942 16 11 C14.70766393 9.62689293 13.37562854 8.28965176 12 7 C11.67 6.34 11.34 5.68 11 5 C7.16860582 3.43261147 4.10490936 2.90226406 0 3 Z " fill="#E0E2F0" transform="translate(195,9)"/>
<path d="M0 0 C2.1875 0.0625 2.1875 0.0625 5 1 C7.38627358 3.56685645 10 6.38918448 10 10 C10.66 10 11.32 10 12 10 C12 11.32 12 12.64 12 14 C12.66 14 13.32 14 14 14 C14.33 16.31 14.66 18.62 15 21 C13.35 20.67 11.7 20.34 10 20 C10 19.01 10 18.02 10 17 C7.03 17 4.06 17 1 17 C1.33 16.01 1.66 15.02 2 14 C3.32 14 4.64 14 6 14 C5.67 12.35 5.34 10.7 5 9 C1.34683329 10.24976756 0.21934164 10.67098753 -2 14 C-2.99 13.67 -3.98 13.34 -5 13 C-4.53199289 8.94393835 -4.12046792 5.53411321 -2 2 C-1.34 2 -0.68 2 0 2 C0 1.34 0 0.68 0 0 Z " fill="#394291" transform="translate(109,66)"/>
<path d="M0 0 C1.125 3.75 1.125 3.75 0 6 C-0.27755815 9.63469004 -0.44735896 13.26911868 -0.62109375 16.91015625 C-0.74613281 17.92980469 -0.87117188 18.94945313 -1 20 C-1.66 20.33 -2.32 20.66 -3 21 C-2.67 14.73 -2.34 8.46 -2 2 C-7.01096255 4.00438502 -9.17349004 5.43438845 -13 9 C-13.33 9.99 -13.66 10.98 -14 12 C-14.66 12 -15.32 12 -16 12 C-16 12.99 -16 13.98 -16 15 C-16.97753644 16.02196992 -17.9805881 17.01979625 -19 18 C-21.51141284 21.71725366 -21.33222384 25.61008909 -21.3125 29.9375 C-21.32861328 30.64068359 -21.34472656 31.34386719 -21.36132812 32.06835938 C-21.3656398 36.66891718 -20.46948473 39.19712957 -18 43 C-18.33 43.99 -18.66 44.98 -19 46 C-19.66 45.34 -20.32 44.68 -21 44 C-21 43.01 -21 42.02 -21 41 C-21.66 41 -22.32 41 -23 41 C-25.92149029 34.58895186 -25.82931707 28.05810668 -24 21.3125 C-23.67 20.549375 -23.34 19.78625 -23 19 C-22.34 19 -21.68 19 -21 19 C-21 17.68 -21 16.36 -21 15 C-20.34 15 -19.68 15 -19 15 C-18.8453125 14.13375 -18.8453125 14.13375 -18.6875 13.25 C-17.89103535 10.64338842 -16.80934723 9.0264689 -15 7 C-14.34 7 -13.68 7 -13 7 C-13 6.34 -13 5.68 -13 5 C-11.58957044 4.15615325 -10.17135868 3.32530504 -8.75 2.5 C-7.56664062 1.80390625 -7.56664062 1.80390625 -6.359375 1.09375 C-4 0 -4 0 0 0 Z " fill="#D7DBEF" transform="translate(189,12)"/>
<path d="M0 0 C1.67542976 0.28604898 3.34385343 0.61781233 5 1 C5.33 2.32 5.66 3.64 6 5 C6.66 5 7.32 5 8 5 C8.2475 5.7425 8.495 6.485 8.75 7.25 C9.821778 10.07161899 9.821778 10.07161899 12 11.875 C14.61948553 14.65820337 15.1521299 17.32589625 16 21 C13.125 21.125 13.125 21.125 10 21 C9.34 20.34 8.68 19.68 8 19 C8 18.01 8 17.02 8 16 C5.36 16 2.72 16 0 16 C0 15.01 0 14.02 0 13 C1.32 13 2.64 13 4 13 C4 11.35 4 9.7 4 8 C3.360625 7.773125 2.72125 7.54625 2.0625 7.3125 C0 6 0 6 -0.8125 3.4375 C-0.874375 2.633125 -0.93625 1.82875 -1 1 C-0.67 0.67 -0.34 0.34 0 0 Z " fill="#3A4290" transform="translate(229,67)"/>
<path d="M0 0 C1.65 0 3.3 0 5 0 C5 2.64 5 5.28 5 8 C6.65 8.33 8.3 8.66 10 9 C10 9.99 10 10.98 10 12 C10.66 12 11.32 12 12 12 C12 12.66 12 13.32 12 14 C9.69 13.67 7.38 13.34 5 13 C5 15.64 5 18.28 5 21 C3.35 20.67 1.7 20.34 0 20 C0 13.4 0 6.8 0 0 Z " fill="#454D95" transform="translate(276,67)"/>
<path d="M0 0 C0.33 0.66 0.66 1.32 1 2 C3.64 2 6.28 2 9 2 C9 2.66 9 3.32 9 4 C6.03 4 3.06 4 0 4 C0 4.66 0 5.32 0 6 C2.64 6 5.28 6 8 6 C8 6.66 8 7.32 8 8 C4.7 8.33 1.4 8.66 -2 9 C-0.99163938 10.23267348 -0.99163938 10.23267348 1.06640625 10.09765625 C1.89011719 10.08605469 2.71382812 10.07445312 3.5625 10.0625 C4.80193359 10.04896484 4.80193359 10.04896484 6.06640625 10.03515625 C6.70449219 10.02355469 7.34257812 10.01195312 8 10 C8 10.66 8 11.32 8 12 C5.36 12 2.72 12 0 12 C0 12.66 0 13.32 0 14 C2.64 14 5.28 14 8 14 C8 14.66 8 15.32 8 16 C5.03 16.33 2.06 16.66 -1 17 C-1 18.32 -1 19.64 -1 21 C1.97 21.33 4.94 21.66 8 22 C8 22.66 8 23.32 8 24 C5.69 24 3.38 24 1 24 C1.66 25.65 2.32 27.3 3 29 C-0.07323235 26.95117843 -1.70811518 25.47158477 -3 22 C-3.21843936 19.32766392 -3.32474486 16.79437893 -3.3125 14.125 C-3.32861328 13.43019531 -3.34472656 12.73539063 -3.36132812 12.01953125 C-3.36580693 7.26304377 -2.4197014 4.07327044 0 0 Z " fill="#646CA8" transform="translate(170,28)"/>
<path d="M0 0 C1.27875 -0.061875 2.5575 -0.12375 3.875 -0.1875 C4.95394531 -0.23970703 4.95394531 -0.23970703 6.0546875 -0.29296875 C6.69664062 -0.19628906 7.33859375 -0.09960938 8 0 C10.4849427 3.72741406 11.17621888 7.28412382 12.21875 11.6015625 C12.4765625 12.39304687 12.734375 13.18453125 13 14 C13.66 14.33 14.32 14.66 15 15 C15.33 14.01 15.66 13.02 16 12 C16.66 12 17.32 12 18 12 C18.66 10.02 19.32 8.04 20 6 C20.66 6 21.32 6 22 6 C21.01 8.97 20.02 11.94 19 15 C18.34 15 17.68 15 17 15 C16.01 17.475 16.01 17.475 15 20 C13.68 19.67 12.36 19.34 11 19 C10.80664062 18.19175781 10.61328125 17.38351563 10.4140625 16.55078125 C10.15367187 15.48214844 9.89328125 14.41351563 9.625 13.3125 C9.36976563 12.25675781 9.11453125 11.20101562 8.8515625 10.11328125 C8.07186014 7.26271802 7.32389794 4.64303366 6 2 C5.01 1.67 4.02 1.34 3 1 C2.7525 1.639375 2.505 2.27875 2.25 2.9375 C0.59188428 6.99988351 -1.2035584 10.99724906 -3 15 C-6 14 -6 14 -7.16796875 12.0390625 C-7.50441406 11.24242188 -7.84085938 10.44578125 -8.1875 9.625 C-8.53167969 8.83351563 -8.87585938 8.04203125 -9.23046875 7.2265625 C-10 5 -10 5 -10 2 C-9.34 3.32 -8.68 4.64 -8 6 C-7.34 6 -6.68 6 -6 6 C-5.67 7.32 -5.34 8.64 -5 10 C-2.8614515 7.8614515 -2.57344937 6.86724686 -2 4 C-1.34 4 -0.68 4 0 4 C0 2.68 0 1.36 0 0 Z " fill="#CED3EC" transform="translate(202,65)"/>
<path d="M0 0 C3.69243752 0.92310938 5.25545743 1.54951556 8 4 C8 4.66 8 5.32 8 6 C11.63 6.66 15.26 7.32 19 8 C19 7.34 19 6.68 19 6 C18.38125 5.731875 17.7625 5.46375 17.125 5.1875 C15 4 15 4 13 1 C14.32 1 15.64 1 17 1 C17 1.66 17 2.32 17 3 C17.66 3 18.32 3 19 3 C19 3.66 19 4.32 19 5 C20.32 5.33 21.64 5.66 23 6 C23.5625 7.9375 23.5625 7.9375 24 10 C22.27026886 11.72973114 19.97483037 11.17208117 17.625 11.1875 C16.64789063 11.20167969 15.67078125 11.21585938 14.6640625 11.23046875 C12 11 12 11 9 9 C9 8.34 9 7.68 9 7 C6.03 6.505 6.03 6.505 3 6 C2.34 7.65 1.68 9.3 1 11 C-4.28 11 -9.56 11 -15 11 C-14.67 10.34 -14.34 9.68 -14 9 C-7.07 9.495 -7.07 9.495 0 10 C0 6.7 0 3.4 0 0 Z " fill="#DDE0EE" transform="translate(281,80)"/>
<path d="M0 0 C2.64 0 5.28 0 8 0 C8 0.66 8 1.32 8 2 C8.66 2 9.32 2 10 2 C12 5 12 5 12 8 C12.66 8 13.32 8 14 8 C15.4606285 10.64738916 16 11.89448334 16 15 C16.66 15 17.32 15 18 15 C18.33 16.32 18.66 17.64 19 19 C19.33 13.39 19.66 7.78 20 2 C20.33 2 20.66 2 21 2 C21 8.93 21 15.86 21 23 C22.65 23 24.3 23 26 23 C26 17.72 26 12.44 26 7 C26.33 7 26.66 7 27 7 C27 12.94 27 18.88 27 25 C22.71 25 18.42 25 14 25 C14 24.34 14 23.68 14 23 C15.65 23 17.3 23 19 23 C18.34 22.01 17.68 21.02 17 20 C17 18.68 17 17.36 17 16 C16.01 15.67 15.02 15.34 14 15 C11.2332241 12.02827774 11 11.25809375 11 7 C10.34 7 9.68 7 9 7 C8.54625 6.175 8.0925 5.35 7.625 4.5 C7.08875 3.675 6.5525 2.85 6 2 C1.99653977 1.55709077 1.99653977 1.55709077 -0.25 4 C-0.8275 4.66 -1.405 5.32 -2 6 C-2 4.68 -2 3.36 -2 2 C-1.34 2 -0.68 2 0 2 C0 1.34 0 0.68 0 0 Z " fill="#B0B9E1" transform="translate(226,65)"/>
<path d="M0 0 C1.32 0 2.64 0 4 0 C4 5.61 4 11.22 4 17 C8.95 17 13.9 17 19 17 C19 17.99 19 18.98 19 20 C12.73 20 6.46 20 0 20 C0 13.4 0 6.8 0 0 Z " fill="#2D3587" transform="translate(76,67)"/>
<path d="M0 0 C3.96 0 7.92 0 12 0 C12 0.66 12 1.32 12 2 C12.66 2 13.32 2 14 2 C14.125 4.875 14.125 4.875 14 8 C12 10 12 10 9.1796875 10.1953125 C8.08914062 10.17210938 6.99859375 10.14890625 5.875 10.125 C4.77929688 10.10695313 3.68359375 10.08890625 2.5546875 10.0703125 C1.71164063 10.04710938 0.86859375 10.02390625 0 10 C0 6.7 0 3.4 0 0 Z M5 3 C5 4.32 5 5.64 5 7 C6.32 7 7.64 7 9 7 C9 5.68 9 4.36 9 3 C7.68 3 6.36 3 5 3 Z " fill="#C1C1C1" transform="translate(221,94)"/>
<path d="M0 0 C0.99 0 1.98 0 3 0 C3 0.99 3 1.98 3 3 C3.99 3 4.98 3 6 3 C6.50227431 8.27388024 5.32894202 10.91015695 2 15 C1.01 15.33 0.02 15.66 -1 16 C-1.33 15.67 -1.66 15.34 -2 15 C-4.52596259 14.76346477 -7.03107207 14.57826308 -9.5625 14.4375 C-10.27341797 14.39431641 -10.98433594 14.35113281 -11.71679688 14.30664062 C-13.47761912 14.20028223 -15.2387832 14.09961154 -17 14 C-17 9.71 -17 5.42 -17 1 C-16.34 1 -15.68 1 -15 1 C-15 4.96 -15 8.92 -15 13 C-10.71 13 -6.42 13 -2 13 C-1.34 8.71 -0.68 4.42 0 0 Z " fill="#3A4391" transform="translate(175,71)"/>
<path d="M0 0 C1.81242052 -0.02687279 3.62495233 -0.04633715 5.4375 -0.0625 C6.44683594 -0.07410156 7.45617187 -0.08570312 8.49609375 -0.09765625 C11 0 11 0 12 1 C12.1875 4.4375 12.1875 4.4375 12 8 C10 10 10 10 7.6171875 10.1953125 C6.71226562 10.17210938 5.80734375 10.14890625 4.875 10.125 C2.461875 10.063125 2.461875 10.063125 0 10 C0 6.7 0 3.4 0 0 Z " fill="#D0D0D0" transform="translate(123,94)"/>
<path d="M0 0 C0.495 2.475 0.495 2.475 1 5 C0.360625 5.12375 -0.27875 5.2475 -0.9375 5.375 C-1.618125 5.58125 -2.29875 5.7875 -3 6 C-3.33 6.66 -3.66 7.32 -4 8 C-1.03 8 1.94 8 5 8 C4.67 8.99 4.34 9.98 4 11 C0.04 10.67 -3.92 10.34 -8 10 C-8 10.66 -8 11.32 -8 12 C-8.66 12 -9.32 12 -10 12 C-10 12.99 -10 13.98 -10 15 C-19.57 15 -29.14 15 -39 15 C-39 14.67 -39 14.34 -39 14 C-29.76 13.67 -20.52 13.34 -11 13 C-10.34 10.69 -9.68 8.38 -9 6 C-6.63030913 1.88125158 -4.99068575 0 0 0 Z " fill="#C5C9E2" transform="translate(114,75)"/>
<path d="M0 0 C1.60875 -0.04125 3.2175 -0.0825 4.875 -0.125 C5.77992188 -0.14820312 6.68484375 -0.17140625 7.6171875 -0.1953125 C10 0 10 0 12 2 C12.26991906 4.68839385 12.08737357 7.29141936 12 10 C8.04 10 4.08 10 0 10 C0 6.7 0 3.4 0 0 Z " fill="#D5D5D5" transform="translate(137,94)"/>
<path d="M0 0 C1.22589844 0.01353516 1.22589844 0.01353516 2.4765625 0.02734375 C3.41628906 0.04474609 3.41628906 0.04474609 4.375 0.0625 C4.375 0.7225 4.375 1.3825 4.375 2.0625 C5.695 2.0625 7.015 2.0625 8.375 2.0625 C8.375 2.7225 8.375 3.3825 8.375 4.0625 C7.055 4.0625 5.735 4.0625 4.375 4.0625 C4.375 4.7225 4.375 5.3825 4.375 6.0625 C5.365 6.0625 6.355 6.0625 7.375 6.0625 C7.375 6.7225 7.375 7.3825 7.375 8.0625 C6.385 8.0625 5.395 8.0625 4.375 8.0625 C4.375 8.7225 4.375 9.3825 4.375 10.0625 C5.365 10.0625 6.355 10.0625 7.375 10.0625 C7.375 10.7225 7.375 11.3825 7.375 12.0625 C6.055 12.0625 4.735 12.0625 3.375 12.0625 C3.375 11.4025 3.375 10.7425 3.375 10.0625 C0.735 10.0625 -1.905 10.0625 -4.625 10.0625 C-4.625 10.7225 -4.625 11.3825 -4.625 12.0625 C-2.315 12.0625 -0.005 12.0625 2.375 12.0625 C2.375 12.7225 2.375 13.3825 2.375 14.0625 C-3.77734375 14.16015625 -3.77734375 14.16015625 -5.625 14.0625 C-6.625 13.0625 -6.625 13.0625 -6.6875 10 C-6.666875 9.030625 -6.64625 8.06125 -6.625 7.0625 C-5.635 7.5575 -5.635 7.5575 -4.625 8.0625 C-3.25157169 8.1314472 -1.87497898 8.14717708 -0.5 8.125 C0.77875 8.104375 2.0575 8.08375 3.375 8.0625 C3.375 7.4025 3.375 6.7425 3.375 6.0625 C0.735 6.0625 -1.905 6.0625 -4.625 6.0625 C-4.625 5.4025 -4.625 4.7425 -4.625 4.0625 C-1.985 4.0625 0.655 4.0625 3.375 4.0625 C3.375 3.4025 3.375 2.7425 3.375 2.0625 C0.405 2.0625 -2.565 2.0625 -5.625 2.0625 C-5.955 2.7225 -6.285 3.3825 -6.625 4.0625 C-6.625 3.0725 -6.625 2.0825 -6.625 1.0625 C-4.21954362 -0.14022819 -2.67503047 -0.03821472 0 0 Z " fill="#414892" transform="translate(174.625,35.9375)"/>
<path d="M0 0 C0.66 0 1.32 0 2 0 C4 3 4 3 4.875 6.125 C5.24625 7.07375 5.6175 8.0225 6 9 C8.18096612 9.95417268 9.64182234 10 12 10 C12.103125 9.443125 12.20625 8.88625 12.3125 8.3125 C13.14178408 5.5230899 14.34299056 3.3860936 16 1 C16.66 1 17.32 1 18 1 C18.99 3.97 19.98 6.94 21 10 C24.3 10.33 27.6 10.66 31 11 C31 11.33 31 11.66 31 12 C27.04 12 23.08 12 19 12 C18.01 9.69 17.02 7.38 16 5 C15.360625 6.134375 14.72125 7.26875 14.0625 8.4375 C12.125 11.875 12.125 11.875 11 13 C8.20204381 13.2945217 6.61684965 13.45692567 4.3125 11.75 C2.9351871 9.91358281 1.9378459 8.09211779 1 6 C0.67 6 0.34 6 0 6 C-0.12375 6.969375 -0.2475 7.93875 -0.375 8.9375 C-0.58125 9.948125 -0.7875 10.95875 -1 12 C-3.95664519 13.4783226 -6.74229737 13.06032783 -10 13 C-10 12.67 -10 12.34 -10 12 C-8.329375 11.7215625 -8.329375 11.7215625 -6.625 11.4375 C-5.42875 10.963125 -4.2325 10.48875 -3 10 C-1.50774489 6.61056524 -1.50774489 6.61056524 -1 3 C-0.67 2.01 -0.34 1.02 0 0 Z " fill="#CFD5E9" transform="translate(189,78)"/>
<path d="M0 0 C5.94 0 11.88 0 18 0 C17.67 0.99 17.34 1.98 17 3 C13.04 3 9.08 3 5 3 C5 3.66 5 4.32 5 5 C4.34 5 3.68 5 3 5 C3 9.95 3 14.9 3 20 C2.01 20 1.02 20 0 20 C0 13.4 0 6.8 0 0 Z " fill="#2B3487" transform="translate(248,67)"/>
<path d="M0 0 C1.875 0.1875 1.875 0.1875 4 1 C6.09794254 5.07247669 6.60055948 9.32036602 7.125 13.8125 C7.21136719 14.50537109 7.29773438 15.19824219 7.38671875 15.91210938 C7.59716081 17.60733706 7.79941672 19.30357755 8 21 C7.01 21 6.02 21 5 21 C5 19.02 5 17.04 5 15 C4.34 15 3.68 15 3 15 C3 13.35 3 11.7 3 10 C1.02 10.33 -0.96 10.66 -3 11 C-2.25 3.375 -2.25 3.375 0 0 Z " fill="#333D8A" transform="translate(205,66)"/>
<path d="M0 0 C0.33 0 0.66 0 1 0 C1 7.26 1 14.52 1 22 C2.32 22 3.64 22 5 22 C5 17.71 5 13.42 5 9 C6.32 9.33 7.64 9.66 9 10 C8.67 10.66 8.34 11.32 8 12 C7.34 11.67 6.68 11.34 6 11 C6 14.96 6 18.92 6 23 C3.87506859 23.02693575 1.75004088 23.04636628 -0.375 23.0625 C-1.55835937 23.07410156 -2.74171875 23.08570312 -3.9609375 23.09765625 C-7 23 -7 23 -9 22 C-8.67 21.34 -8.34 20.68 -8 20 C-6.68 20.33 -5.36 20.66 -4 21 C-4.33 19.35 -4.66 17.7 -5 16 C-4.34 16.33 -3.68 16.66 -3 17 C-3 17.66 -3 18.32 -3 19 C-2.34 19 -1.68 19 -1 19 C-1.01160156 17.71222656 -1.02320312 16.42445312 -1.03515625 15.09765625 C-1.0445327 13.41927228 -1.05363305 11.74088674 -1.0625 10.0625 C-1.07087891 9.21236328 -1.07925781 8.36222656 -1.08789062 7.48632812 C-1.09111328 6.67744141 -1.09433594 5.86855469 -1.09765625 5.03515625 C-1.10289307 4.2862915 -1.10812988 3.53742676 -1.11352539 2.76586914 C-1 1 -1 1 0 0 Z " fill="#8991BE" transform="translate(128,66)"/>
<path d="M0 0 C2.64 0 5.28 0 8 0 C8 1.32 8 2.64 8 4 C8.66 4 9.32 4 10 4 C10 4.66 10 5.32 10 6 C10.66 6 11.32 6 12 6 C12 7.32 12 8.64 12 10 C12.66 10 13.32 10 14 10 C14.66 11.32 15.32 12.64 16 14 C15.01 13.67 14.02 13.34 13 13 C13 12.34 13 11.68 13 11 C12.34 11 11.68 11 11 11 C9.41524658 8.75870587 8.04100872 6.4220015 6.6328125 4.06640625 C4.80123461 1.74845241 3.8781214 1.3426335 1 1 C1 1.66 1 2.32 1 3 C0.34 3 -0.32 3 -1 3 C-1.0825 3.53625 -1.165 4.0725 -1.25 4.625 C-2.26187375 7.82926688 -4.12812432 10.22054824 -6 13 C-6.67966676 14.66140763 -7.34938905 16.32700041 -8 18 C-8.66 18.66 -9.32 19.32 -10 20 C-12.91952568 19.98251781 -15.72297885 19.86055367 -18.625 19.625 C-19.42679687 19.56828125 -20.22859375 19.5115625 -21.0546875 19.453125 C-23.03715498 19.31152018 -25.01869051 19.15697741 -27 19 C-27 18.67 -27 18.34 -27 18 C-18.585 17.505 -18.585 17.505 -10 17 C-8.68 14.03 -7.36 11.06 -6 8 C-5.34 8 -4.68 8 -4 8 C-4 6.68 -4 5.36 -4 4 C-3.34 4 -2.68 4 -2 4 C-1.34 2.68 -0.68 1.36 0 0 Z " fill="#CFD3EA" transform="translate(108,65)"/>
<path d="M0 0 C0.9075 0.00257812 1.815 0.00515625 2.75 0.0078125 C4.11125 0.00394531 4.11125 0.00394531 5.5 0 C7.75 0.1328125 7.75 0.1328125 8.75 1.1328125 C8.79063832 2.79898365 8.792721 4.46669345 8.75 6.1328125 C6.11 6.4628125 3.47 6.7928125 0.75 7.1328125 C0.42 8.1228125 0.09 9.1128125 -0.25 10.1328125 C-1.24 10.1328125 -2.23 10.1328125 -3.25 10.1328125 C-3.27689216 8.65374358 -3.29634621 7.17453767 -3.3125 5.6953125 C-3.32410156 4.87160156 -3.33570313 4.04789062 -3.34765625 3.19921875 C-3.20972249 0.28054034 -2.91665713 0.17216379 0 0 Z " fill="#C3C3C3" transform="translate(184.25,93.8671875)"/>
<path d="M0 0 C0.99 0 1.98 0 3 0 C3 0.66 3 1.32 3 2 C3.66 2 4.32 2 5 2 C5 2.66 5 3.32 5 4 C6.32 4.33 7.64 4.66 9 5 C9 5.66 9 6.32 9 7 C9.66 7 10.32 7 11 7 C11 4.69 11 2.38 11 0 C11.66 0 12.32 0 13 0 C13 3.3 13 6.6 13 10 C6.125 9.125 6.125 9.125 5 8 C4.67 8.66 4.34 9.32 4 10 C2.68 9.67 1.36 9.34 0 9 C0 6.03 0 3.06 0 0 Z " fill="#C7C7C7" transform="translate(206,94)"/>
<path d="M0 0 C9 0 18 0 27 0 C26.67 0.66 26.34 1.32 26 2 C22.7 1.67 19.4 1.34 16 1 C16 1.66 16 2.32 16 3 C18.64 3 21.28 3 24 3 C24.38218767 4.65614657 24.71395102 6.32457024 25 8 C24 9 24 9 20.4375 9.0625 C19.303125 9.041875 18.16875 9.02125 17 9 C16.67 7.35 16.34 5.7 16 4 C15.34 4 14.68 4 14 4 C14 5.65 14 7.3 14 9 C13.01 9.495 13.01 9.495 12 10 C11.855625 8.865625 11.71125 7.73125 11.5625 6.5625 C11.38828522 3.19222799 11.38828522 3.19222799 10 2 C8.31816052 1.76712992 6.6287584 1.58735834 4.9375 1.4375 C4.01839844 1.35371094 3.09929687 1.26992187 2.15234375 1.18359375 C1.08693359 1.09271484 1.08693359 1.09271484 0 1 C0 0.67 0 0.34 0 0 Z M19 4 C18.67 5.32 18.34 6.64 18 8 C19.65 8 21.3 8 23 8 C23 6.68 23 5.36 23 4 C21.68 4 20.36 4 19 4 Z " fill="#E2E3E3" transform="translate(137,93)"/>
<path d="M0 0 C0.99 0 1.98 0 3 0 C3 6.6 3 13.2 3 20 C1.02 20 -0.96 20 -3 20 C-3.66 18.35 -4.32 16.7 -5 15 C-3.35 14.67 -1.7 14.34 0 14 C0 9.38 0 4.76 0 0 Z " fill="#2C3688" transform="translate(149,67)"/>
<path d="M0 0 C0.99 0 1.98 0 3 0 C3 1.65 3 3.3 3 5 C3.66 5 4.32 5 5 5 C5 6.98 5 8.96 5 11 C5.66 10.67 6.32 10.34 7 10 C6.67 7.03 6.34 4.06 6 1 C6.66 1.33 7.32 1.66 8 2 C8.625 5.0625 8.625 5.0625 9 8 C9.99 8.33 10.98 8.66 12 9 C12.33 8.01 12.66 7.02 13 6 C13.33 6.66 13.66 7.32 14 8 C13.67 8.99 13.34 9.98 13 11 C16.0745356 10.2236068 16.0745356 10.2236068 18 8 C17.125 11.875 17.125 11.875 16 13 C12.29136732 13.42280829 8.70278505 13.49259771 5 13 C2.35111106 10.35111106 2.05834231 8.87513469 1.8125 5.1875 C1.9053125 4.1046875 1.9053125 4.1046875 2 3 C0.02 3.99 0.02 3.99 -2 5 C-1.34 3.35 -0.68 1.7 0 0 Z " fill="#646BA5" transform="translate(205,76)"/>
<path d="M0 0 C1.65 0 3.3 0 5 0 C4.67 0.66 4.34 1.32 4 2 C3.01 1.67 2.02 1.34 1 1 C0.67 4.3 0.34 7.6 0 11 C1.65 10.67 3.3 10.34 5 10 C5 10.66 5 11.32 5 12 C4.34 12 3.68 12 3 12 C2.87625 12.556875 2.7525 13.11375 2.625 13.6875 C1.2972973 18.6 1.2972973 18.6 0 21 C-2.625 21.8125 -2.625 21.8125 -5 22 C-4.79890625 21.00033203 -4.79890625 21.00033203 -4.59375 19.98046875 C-4.15041826 17.75506007 -3.71404479 15.52826312 -3.28125 13.30078125 C-3.02088543 11.97134396 -2.76046775 10.64191708 -2.5 9.3125 C-2.30470703 8.29833008 -2.30470703 8.29833008 -2.10546875 7.26367188 C-1.11295413 2.22590825 -1.11295413 2.22590825 0 0 Z " fill="#666BA7" transform="translate(186,66)"/>
<path d="M0 0 C1.62463842 -0.05395478 3.24978541 -0.09277195 4.875 -0.125 C5.77992188 -0.14820312 6.68484375 -0.17140625 7.6171875 -0.1953125 C10 0 10 0 12 2 C12.1875 5.5625 12.1875 5.5625 12 9 C11 10 11 10 8.3125 10.1328125 C7.219375 10.13023438 6.12625 10.12765625 5 10.125 C3.906875 10.12757812 2.81375 10.13015625 1.6875 10.1328125 C-1 10 -1 10 -2 9 C-2.04080783 7.00041636 -2.04254356 4.99954746 -2 3 C-1.34 3 -0.68 3 0 3 C0.33 4.32 0.66 5.64 1 7 C3.31 7 5.62 7 8 7 C8 5.68 8 4.36 8 3 C5.36 2.67 2.72 2.34 0 2 C0 1.34 0 0.68 0 0 Z " fill="#B5B4B4" transform="translate(153,94)"/>
<path d="M0 0 C9.1796875 -0.1953125 9.1796875 -0.1953125 12 0 C14 2 14 2 14.25 5.4375 C14 9 14 9 12 12 C7.97409284 12.41820365 4.05612469 12.12945079 0 12 C0 8.04 0 4.08 0 0 Z M1 1 C1 3.97 1 6.94 1 10 C6.08303686 10.11320856 6.08303686 10.11320856 11 9 C11 8.34 11 7.68 11 7 C11.66 7 12.32 7 13 7 C11.88145414 3.27385847 11.88145414 3.27385847 9 1 C7.62657169 0.9310528 6.24997898 0.91532292 4.875 0.9375 C2.956875 0.9684375 2.956875 0.9684375 1 1 Z " fill="#CED2EC" transform="translate(161,72)"/>
<path d="M0 0 C-6.49621974 4.42080408 -12.86288999 7.99638082 -21 7 C-23.771944 5.84292719 -26.39010001 4.48380101 -29 3 C-28.67 2.01 -28.34 1.02 -28 0 C-27.18208984 0.30744141 -27.18208984 0.30744141 -26.34765625 0.62109375 C-20.84567235 2.58675979 -15.8235181 3.53781602 -10 4 C-10 3.34 -10 2.68 -10 2 C-3.375 -1.125 -3.375 -1.125 0 0 Z " fill="#CBCFE6" transform="translate(200,56)"/>
<path d="M0 0 C1.98 0 3.96 0 6 0 C6 0.33 6 0.66 6 1 C4.35 1 2.7 1 1 1 C1.33 7.6 1.66 14.2 2 21 C3.32 21.33 4.64 21.66 6 22 C6 22.66 6 23.32 6 24 C-6.74618834 24.92017937 -6.74618834 24.92017937 -9.8203125 22.6640625 C-10.875 21 -10.875 21 -12 18 C-10.68 18.33 -9.36 18.66 -8 19 C-8 19.99 -8 20.98 -8 22 C-6.02 22 -4.04 22 -2 22 C-2 21.34 -2 20.68 -2 20 C-1.34 20 -0.68 20 0 20 C0 13.4 0 6.8 0 0 Z " fill="#9398BF" transform="translate(275,66)"/>
<path d="M0 0 C0 3.3 0 6.6 0 10 C-0.66 10 -1.32 10 -2 10 C-2 9.34 -2 8.68 -2 8 C-3.65 8 -5.3 8 -7 8 C-7.33 7.34 -7.66 6.68 -8 6 C-8 7.32 -8 8.64 -8 10 C-9.32 10 -10.64 10 -12 10 C-11.43351673 6.52556925 -10.35584027 5.01266113 -7.6875 2.75 C-7.09324219 2.22921875 -6.49898437 1.7084375 -5.88671875 1.171875 C-4 0 -4 0 0 0 Z " fill="#6C6EA6" transform="translate(187,14)"/>
<path d="M0 0 C1.125 3.75 1.125 3.75 0 6 C-0.27755815 9.63469004 -0.44735896 13.26911868 -0.62109375 16.91015625 C-0.74613281 17.92980469 -0.87117188 18.94945313 -1 20 C-1.66 20.33 -2.32 20.66 -3 21 C-2.67 14.73 -2.34 8.46 -2 2 C-7.01096255 4.00438502 -9.17349004 5.43438845 -13 9 C-13.33 9.99 -13.66 10.98 -14 12 C-15.65 12.33 -17.3 12.66 -19 13 C-17.7260411 10.96166576 -16.38938077 8.96147874 -15 7 C-14.34 7 -13.68 7 -13 7 C-13 6.34 -13 5.68 -13 5 C-11.58957044 4.15615325 -10.17135868 3.32530504 -8.75 2.5 C-7.56664062 1.80390625 -7.56664062 1.80390625 -6.359375 1.09375 C-4 0 -4 0 0 0 Z " fill="#E4E5F4" transform="translate(189,12)"/>
<path d="M0 0 C1.98 0 3.96 0 6 0 C6 7.26 6 14.52 6 22 C4.35 22.33 2.7 22.66 1 23 C0.67 22.34 0.34 21.68 0 21 C1.65 21 3.3 21 5 21 C5 14.4 5 7.8 5 1 C4.01 1 3.02 1 2 1 C2 5.29 2 9.58 2 14 C0.35 13.67 -1.3 13.34 -3 13 C-3.33 12.34 -3.66 11.68 -4 11 C-2.68 11.33 -1.36 11.66 0 12 C0 8.04 0 4.08 0 0 Z " fill="#6D71A8" transform="translate(147,66)"/>
<path d="M0 0 C1.8125 0.125 1.8125 0.125 4 1 C6.38482838 4.74758745 7.39145737 7.56348311 7 12 C6.01 12.33 5.02 12.66 4 13 C4 11.68 4 10.36 4 9 C2.35 9.33 0.7 9.66 -1 10 C-1.125 2.25 -1.125 2.25 0 0 Z " fill="#293387" transform="translate(187,67)"/>
<path d="M0 0 C2.64 0 5.28 0 8 0 C7.67 1.32 7.34 2.64 7 4 C6.67 3.34 6.34 2.68 6 2 C5.01 1.67 4.02 1.34 3 1 C2.7525 1.639375 2.505 2.27875 2.25 2.9375 C0.59188428 6.99988351 -1.2035584 10.99724906 -3 15 C-6 14 -6 14 -7.16796875 12.0390625 C-7.50441406 11.24242188 -7.84085938 10.44578125 -8.1875 9.625 C-8.53167969 8.83351563 -8.87585938 8.04203125 -9.23046875 7.2265625 C-10 5 -10 5 -10 2 C-9.34 3.32 -8.68 4.64 -8 6 C-7.34 6 -6.68 6 -6 6 C-5.67 7.32 -5.34 8.64 -5 10 C-2.8614515 7.8614515 -2.57344937 6.86724686 -2 4 C-1.34 4 -0.68 4 0 4 C0 2.68 0 1.36 0 0 Z " fill="#C5C8E3" transform="translate(202,65)"/>
<path d="M0 0 C0.99 0 1.98 0 3 0 C3 0.66 3 1.32 3 2 C3.66 2 4.32 2 5 2 C5.66 3.98 6.32 5.96 7 8 C3.04 8.66 -0.92 9.32 -5 10 C-4.34 8.35 -3.68 6.7 -3 5 C-2.34 5 -1.68 5 -1 5 C-0.67 3.35 -0.34 1.7 0 0 Z " fill="#B8B8B8" transform="translate(246,94)"/>
<path d="M0 0 C0.99 0.33 1.98 0.66 3 1 C3.33 1.99 3.66 2.98 4 4 C3.01 4.495 3.01 4.495 2 5 C1.53348793 7.12576782 1.53348793 7.12576782 1.375 9.5625 C1.30023438 10.38878906 1.22546875 11.21507813 1.1484375 12.06640625 C1.09945312 12.70449219 1.05046875 13.34257813 1 14 C-1.41936317 14.16249454 -3.82781859 14.28097817 -6.25 14.375 C-6.93191406 14.42527344 -7.61382812 14.47554687 -8.31640625 14.52734375 C-10.328125 14.5859375 -10.328125 14.5859375 -14 14 C-16.484375 10.9765625 -16.484375 10.9765625 -18 8 C-17.01 8.33 -16.02 8.66 -15 9 C-15 9.66 -15 10.32 -15 11 C-10.05 11.33 -5.1 11.66 0 12 C0 8.04 0 4.08 0 0 Z " fill="#DEE1F2" transform="translate(134,77)"/>
<path d="M0 0 C4.52220645 0.79803643 8.87816169 1.93908085 13 4 C13.625 7.0625 13.625 7.0625 14 10 C12.5 8.625 12.5 8.625 11 7 C11 6.34 11 5.68 11 5 C9.948125 5.061875 9.948125 5.061875 8.875 5.125 C5.61628372 4.98331668 3.0440053 4.13265314 0 3 C0.04125 4.2375 0.0825 5.475 0.125 6.75 C0.13658291 10.01637962 -0.1431298 12.2146947 -2 15 C-2.19392201 9.47322267 -1.7479503 5.24385089 0 0 Z " fill="#CBCFE5" transform="translate(195,9)"/>
<path d="M0 0 C0.99 0 1.98 0 3 0 C3 1.32 3 2.64 3 4 C-2.11111111 8 -2.11111111 8 -5 8 C-5 8.66 -5 9.32 -5 10 C-5.66 10 -6.32 10 -7 10 C-7 10.66 -7 11.32 -7 12 C-7.66 12 -8.32 12 -9 12 C-9 12.66 -9 13.32 -9 14 C-8.34 14 -7.68 14 -7 14 C-7.33 14.66 -7.66 15.32 -8 16 C-9.32 15.67 -10.64 15.34 -12 15 C-12.33 13.68 -12.66 12.36 -13 11 C-4.738041 4.48063781 -4.738041 4.48063781 0 3 C0 2.01 0 1.02 0 0 Z " fill="#CED4E7" transform="translate(301,65)"/>
<path d="M0 0 C3.3 0 6.6 0 10 0 C10 0.66 10 1.32 10 2 C7.36 2 4.72 2 2 2 C2 3.98 2 5.96 2 8 C4.64 8 7.28 8 10 8 C10 7.34 10 6.68 10 6 C10.66 6 11.32 6 12 6 C11.34 7.32 10.68 8.64 10 10 C6.7 10 3.4 10 0 10 C0 6.7 0 3.4 0 0 Z " fill="#A9A9A9" transform="translate(123,94)"/>
<path d="M0 0 C0.66 0 1.32 0 2 0 C2 2.64 2 5.28 2 8 C4.64 8 7.28 8 10 8 C10 5.36 10 2.72 10 0 C10.66 0 11.32 0 12 0 C12 3.3 12 6.6 12 10 C8.04 10 4.08 10 0 10 C0 6.7 0 3.4 0 0 Z " fill="#A8A7A8" transform="translate(167,94)"/>
<path d="M0 0 C2.90802461 2.21928194 4.95312762 3.92969143 7 7 C9.05003955 8.19232613 9.05003955 8.19232613 11 9 C10.360625 9.28875 9.72125 9.5775 9.0625 9.875 C6.84793921 10.82823451 6.84793921 10.82823451 6 13 C4.29115995 11.37660195 2.62553283 9.70680947 1 8 C1 7.34 1 6.68 1 6 C0.34 6 -0.32 6 -1 6 C-1 5.34 -1 4.68 -1 4 C-1.66 3.67 -2.32 3.34 -3 3 C-2.01 2.01 -1.02 1.02 0 0 Z " fill="#39418F" transform="translate(138,72)"/>
<path d="M0 0 C0.33 1.65 0.66 3.3 1 5 C0.360625 5.12375 -0.27875 5.2475 -0.9375 5.375 C-1.9584375 5.684375 -1.9584375 5.684375 -3 6 C-3.33 6.66 -3.66 7.32 -4 8 C-1.03 8 1.94 8 5 8 C5 8.33 5 8.66 5 9 C1.37 9 -2.26 9 -6 9 C-6.33 8.34 -6.66 7.68 -7 7 C-7.99 7.495 -7.99 7.495 -9 8 C-7.07834179 2.53066508 -6.10288444 0 0 0 Z " fill="#989EC8" transform="translate(114,75)"/>
<path d="M0 0 C0.99 0 1.98 0 3 0 C3 0.99 3 1.98 3 3 C3.99 3 4.98 3 6 3 C6.36923077 8.41538462 6.36923077 8.41538462 4.5 11.375 C4.005 11.91125 3.51 12.4475 3 13 C2.67 12.01 2.34 11.02 2 10 C1.01 10 0.02 10 -1 10 C-0.67 6.7 -0.34 3.4 0 0 Z " fill="#3F4690" transform="translate(175,71)"/>
<path d="M0 0 C0.33 0.66 0.66 1.32 1 2 C2.32 2 3.64 2 5 2 C5 2.66 5 3.32 5 4 C3.68 4 2.36 4 1 4 C1 4.66 1 5.32 1 6 C2.32 6 3.64 6 5 6 C5 6.66 5 7.32 5 8 C3.68 8 2.36 8 1 8 C1 8.66 1 9.32 1 10 C1.99 10.33 2.98 10.66 4 11 C2.68 11.33 1.36 11.66 0 12 C0 12.66 0 13.32 0 14 C1.65 14 3.3 14 5 14 C5 14.66 5 15.32 5 16 C2.69 16 0.38 16 -2 16 C-1.34 10.72 -0.68 5.44 0 0 Z " fill="#676EAC" transform="translate(193,24)"/>
<path d="M0 0 C1.32 0 2.64 0 4 0 C4 0.66 4 1.32 4 2 C6.64 2 9.28 2 12 2 C12 2.66 12 3.32 12 4 C9.69 4 7.38 4 5 4 C5 4.66 5 5.32 5 6 C7.31 6 9.62 6 12 6 C12 6.66 12 7.32 12 8 C9.36 8 6.72 8 4 8 C4 7.34 4 6.68 4 6 C2.35 6 0.7 6 -1 6 C-1 5.34 -1 4.68 -1 4 C-0.01 3.67 0.98 3.34 2 3 C1.34 2.67 0.68 2.34 0 2 C0 1.34 0 0.68 0 0 Z " fill="#3D478E" transform="translate(194,32)"/>
<path d="M0 0 C1.60875 -0.04125 3.2175 -0.0825 4.875 -0.125 C5.77992188 -0.14820312 6.68484375 -0.17140625 7.6171875 -0.1953125 C10 0 10 0 12 2 C12.26991906 4.68839385 12.08737357 7.29141936 12 10 C11.34 10 10.68 10 10 10 C10 7.36 10 4.72 10 2 C7.36 2 4.72 2 2 2 C2 4.64 2 7.28 2 10 C1.34 10 0.68 10 0 10 C0 6.7 0 3.4 0 0 Z " fill="#A3A2A2" transform="translate(137,94)"/>
<path d="M0 0 C2.1875 0.0625 2.1875 0.0625 5 1 C7.38627358 3.56685645 10 6.38918448 10 10 C9.01 10.33 8.02 10.66 7 11 C5.79371992 8.66785852 4.8345262 6.50357861 4 4 C3.34 4 2.68 4 2 4 C1.67 4.66 1.34 5.32 1 6 C-0.64363134 6.72159424 -2.31050386 7.39351421 -4 8 C-3.34 6.02 -2.68 4.04 -2 2 C-1.34 2 -0.68 2 0 2 C0 1.34 0 0.68 0 0 Z " fill="#4B5295" transform="translate(109,66)"/>
<path d="M0 0 C4 1 4 1 5.25 3.0625 C5.4975 3.701875 5.745 4.34125 6 5 C5.01 5.33 4.02 5.66 3 6 C2.34 7.65 1.68 9.3 1 11 C-4.28 11 -9.56 11 -15 11 C-14.67 10.34 -14.34 9.68 -14 9 C-7.07 9.495 -7.07 9.495 0 10 C0 6.7 0 3.4 0 0 Z " fill="#F0F3F9" transform="translate(281,80)"/>
<path d="M0 0 C1.32 0.33 2.64 0.66 4 1 C4 2.65 4 4.3 4 6 C2.68 6 1.36 6 0 6 C0 6.99 0 7.98 0 9 C2.64 9 5.28 9 8 9 C8 9.33 8 9.66 8 10 C4.7 10 1.4 10 -2 10 C-2.66 8.68 -3.32 7.36 -4 6 C-2.68 4.02 -1.36 2.04 0 0 Z " fill="#9CA4CE" transform="translate(229,74)"/>
<path d="M0 0 C1.32 0 2.64 0 4 0 C4 3.96 4 7.92 4 12 C3.01 12.495 3.01 12.495 2 13 C1.34 12.67 0.68 12.34 0 12 C0 8.04 0 4.08 0 0 Z " fill="#C6C6C7" transform="translate(200,93)"/>
<path d="M0 0 C4.95 0 9.9 0 15 0 C15 0.66 15 1.32 15 2 C16.32 2 17.64 2 19 2 C19 2.66 19 3.32 19 4 C16.58239124 3.88573491 14.16652782 3.75900339 11.75 3.625 C11.06808594 3.5940625 10.38617188 3.563125 9.68359375 3.53125 C6.01260962 3.31740626 3.13748384 2.98922945 0 1 C0 0.67 0 0.34 0 0 Z " fill="#333B88" transform="translate(156,67)"/>
<path d="M0 0 C0 0.66 0 1.32 0 2 C-2.64 2 -5.28 2 -8 2 C-8 2.66 -8 3.32 -8 4 C-6.02 4 -4.04 4 -2 4 C-2 4.66 -2 5.32 -2 6 C-6.81938524 6.23509196 -10.46298506 5.45184478 -15 4 C-15 3.34 -15 2.68 -15 2 C-9.87080814 -0.10428384 -5.4389165 -0.21755666 0 0 Z " fill="#3B428E" transform="translate(189,54)"/>
<path d="M0 0 C0.33 0 0.66 0 1 0 C1 5.94 1 11.88 1 18 C-3.29 18 -7.58 18 -12 18 C-12 17.34 -12 16.68 -12 16 C-10.35 16 -8.7 16 -7 16 C-7 15.34 -7 14.68 -7 14 C-6.34 14 -5.68 14 -5 14 C-5 14.66 -5 15.32 -5 16 C-3.35 16 -1.7 16 0 16 C0 10.72 0 5.44 0 0 Z " fill="#9A9FC4" transform="translate(252,72)"/>
<path d="M0 0 C1.485 0.99 1.485 0.99 3 2 C3.66 1.67 4.32 1.34 5 1 C3.07289294 11.55808656 3.07289294 11.55808656 1 16 C2.98 15.34 4.96 14.68 7 14 C6.67 14.99 6.34 15.98 6 17 C4.02 17 2.04 17 0 17 C-1.125 10.25 -1.125 10.25 0 8 C0.0689472 6.62657169 0.08467708 5.24997898 0.0625 3.875 C0.041875 2.59625 0.02125 1.3175 0 0 Z " fill="#919DC5" transform="translate(180,72)"/>
<path d="M0 0 C0.66 0 1.32 0 2 0 C2 1.65 2 3.3 2 5 C3.65 5 5.3 5 7 5 C7 5.33 7 5.66 7 6 C-3 6 -13 6 -23 6 C-23 5.67 -23 5.34 -23 5 C-21.73542969 4.93941406 -20.47085938 4.87882812 -19.16796875 4.81640625 C-17.50780129 4.73199096 -15.84764563 4.64734345 -14.1875 4.5625 C-13.35412109 4.52318359 -12.52074219 4.48386719 -11.66210938 4.44335938 C-10.85966797 4.40146484 -10.05722656 4.35957031 -9.23046875 4.31640625 C-8.49207764 4.27974854 -7.75368652 4.24309082 -6.99291992 4.20532227 C-4.792505 4.05157859 -4.792505 4.05157859 -2 3 C-1.34 2.01 -0.68 1.02 0 0 Z " fill="#C4C8E3" transform="translate(178,84)"/>
<path d="M0 0 C0 1.32 0 2.64 0 4 C-0.66 4 -1.32 4 -2 4 C-2 5.65 -2 7.3 -2 9 C-3.32 9 -4.64 9 -6 9 C-6 8.01 -6 7.02 -6 6 C-6.66 6 -7.32 6 -8 6 C-8 5.01 -8 4.02 -8 3 C-7.34 3 -6.68 3 -6 3 C-5.67 2.34 -5.34 1.68 -5 1 C-2 0 -2 0 0 0 Z " fill="#272F87" transform="translate(202,78)"/>
<path d="M0 0 C0.66 0 1.32 0 2 0 C4.1519437 3.22791555 4.20086443 4.28400809 4 8 C4.66 8 5.32 8 6 8 C6 12.62 6 17.24 6 22 C5.34 22 4.68 22 4 22 C3.67 16.39 3.34 10.78 3 5 C2.34 5 1.68 5 1 5 C0.67 3.35 0.34 1.7 0 0 Z " fill="#E4E7F3" transform="translate(208,15)"/>
<path d="M0 0 C0.66 0 1.32 0 2 0 C2 0.66 2 1.32 2 2 C3.3921875 2.185625 3.3921875 2.185625 4.8125 2.375 C8 3 8 3 11 5 C11 5.66 11 6.32 11 7 C3 7.30769231 3 7.30769231 0 5 C-0.8125 2.9375 -0.8125 2.9375 -1 1 C-0.67 0.67 -0.34 0.34 0 0 Z " fill="#3C418D" transform="translate(289,81)"/>
<path d="M0 0 C0.99 0 1.98 0 3 0 C7.06153846 6.4 7.06153846 6.4 6.75 9.4375 C6.5025 9.953125 6.255 10.46875 6 11 C5.34 10.67 4.68 10.34 4 10 C4 9.34 4 8.68 4 8 C3.360625 7.773125 2.72125 7.54625 2.0625 7.3125 C0 6 0 6 -0.8125 3.4375 C-0.874375 2.633125 -0.93625 1.82875 -1 1 C-0.67 0.67 -0.34 0.34 0 0 Z " fill="#2B3488" transform="translate(229,67)"/>
<path d="M0 0 C-1 1 -1 1 -4.81640625 1.09765625 C-6.39846682 1.09098089 -7.98051159 1.07901875 -9.5625 1.0625 C-10.36880859 1.05798828 -11.17511719 1.05347656 -12.00585938 1.04882812 C-14.00393756 1.03700518 -16.00197783 1.01906914 -18 1 C-18 0.34 -18 -0.32 -18 -1 C-4.36956522 -2.91304348 -4.36956522 -2.91304348 0 0 Z " fill="#8B90B9" transform="translate(209,43)"/>
<path d="M0 0 C2.64 0 5.28 0 8 0 C8 0.66 8 1.32 8 2 C8.66 2 9.32 2 10 2 C12 5 12 5 12 8 C12.66 8 13.32 8 14 8 C13.67 8.99 13.34 9.98 13 11 C12.34 9.68 11.68 8.36 11 7 C10.34 7 9.68 7 9 7 C8.54625 6.175 8.0925 5.35 7.625 4.5 C7.08875 3.675 6.5525 2.85 6 2 C1.99653977 1.55709077 1.99653977 1.55709077 -0.25 4 C-0.8275 4.66 -1.405 5.32 -2 6 C-2 4.68 -2 3.36 -2 2 C-1.34 2 -0.68 2 0 2 C0 1.34 0 0.68 0 0 Z " fill="#DFE2F2" transform="translate(226,65)"/>
<path d="M0 0 C0.66 0 1.32 0 2 0 C2.125 7.625 2.125 7.625 1 11 C1.66 11 2.32 11 3 11 C2.67 13.97 2.34 16.94 2 20 C1.34 20 0.68 20 0 20 C0 13.4 0 6.8 0 0 Z " fill="#242A82" transform="translate(278,67)"/>
<path d="M0 0 C0.66 0 1.32 0 2 0 C2 3.3 2 6.6 2 10 C0.35 9.67 -1.3 9.34 -3 9 C-3.33 8.01 -3.66 7.02 -4 6 C-4.66 6 -5.32 6 -6 6 C-6 5.34 -6 4.68 -6 4 C-4.68 4.33 -3.36 4.66 -2 5 C-2 5.66 -2 6.32 -2 7 C-1.34 7 -0.68 7 0 7 C0 4.69 0 2.38 0 0 Z " fill="#A6A5A5" transform="translate(217,94)"/>
<path d="M0 0 C1.64574566 -0.02688151 3.29161413 -0.04634123 4.9375 -0.0625 C5.85402344 -0.07410156 6.77054688 -0.08570312 7.71484375 -0.09765625 C10 0 10 0 11 1 C11.04063832 2.66617115 11.042721 4.33388095 11 6 C10.34 6 9.68 6 9 6 C9 4.68 9 3.36 9 2 C6.36 2 3.72 2 1 2 C1 4.31 1 6.62 1 9 C0.67 9 0.34 9 0 9 C0 6.03 0 3.06 0 0 Z " fill="#A6A5A5" transform="translate(182,94)"/>
<path d="M0 0 C0.99 0 1.98 0 3 0 C3.125 6.625 3.125 6.625 2 10 C0.68 10 -0.64 10 -2 10 C-1.33333333 6.66666667 -0.66666667 3.33333333 0 0 Z " fill="#333889" transform="translate(183,78)"/>
<path d="M0 0 C2.97 0 5.94 0 9 0 C8.34 1.32 7.68 2.64 7 4 C4.375 4.75 4.375 4.75 2 5 C2 4.34 2 3.68 2 3 C0.35 3.33 -1.3 3.66 -3 4 C-2.67 3.34 -2.34 2.68 -2 2 C-1.34 2 -0.68 2 0 2 C0 1.34 0 0.68 0 0 Z " fill="#6467A0" transform="translate(293,66)"/>
<path d="M0 0 C2.62697064 -0.22137393 5.00893964 -0.28162025 7.625 -0.1875 C8.33140625 -0.17396484 9.0378125 -0.16042969 9.765625 -0.14648438 C11.51074128 -0.1111104 13.25546608 -0.05730221 15 0 C14.67 0.99 14.34 1.98 14 3 C13.34 2.67 12.68 2.34 12 2 C10.12943209 1.7724985 8.25314042 1.59037189 6.375 1.4375 C5.37210937 1.35371094 4.36921875 1.26992187 3.3359375 1.18359375 C2.17964844 1.09271484 2.17964844 1.09271484 1 1 C0.67 3.97 0.34 6.94 0 10 C-0.66 9.67 -1.32 9.34 -2 9 C-2.25 3.375 -2.25 3.375 0 0 Z " fill="#F1F0F0" transform="translate(122,93)"/>
<path d="M0 0 C0.66 0 1.32 0 2 0 C2.33 2.31 2.66 4.62 3 7 C2.01 6.67 1.02 6.34 0 6 C-0.12375 6.969375 -0.2475 7.93875 -0.375 8.9375 C-0.58125 9.948125 -0.7875 10.95875 -1 12 C-3.95664519 13.4783226 -6.74229737 13.06032783 -10 13 C-10 12.67 -10 12.34 -10 12 C-8.329375 11.7215625 -8.329375 11.7215625 -6.625 11.4375 C-5.42875 10.963125 -4.2325 10.48875 -3 10 C-1.50774489 6.61056524 -1.50774489 6.61056524 -1 3 C-0.67 2.01 -0.34 1.02 0 0 Z " fill="#DCE4F3" transform="translate(189,78)"/>
<path d="M0 0 C3.85645121 -0.22036864 6.49223216 0.39644899 10 2 C10 2.66 10 3.32 10 4 C8.35 4 6.7 4 5 4 C5 4.66 5 5.32 5 6 C3.68 6 2.36 6 1 6 C1.33 4.68 1.66 3.36 2 2 C1.34 2 0.68 2 0 2 C0 1.34 0 0.68 0 0 Z " fill="#515498" transform="translate(195,12)"/>
<path d="M0 0 C0.66 0 1.32 0 2 0 C2.33 1.32 2.66 2.64 3 4 C5.97 4.33 8.94 4.66 12 5 C12 5.66 12 6.32 12 7 C10.18757948 7.02687279 8.37504767 7.04633715 6.5625 7.0625 C5.55316406 7.07410156 4.54382813 7.08570312 3.50390625 7.09765625 C1 7 1 7 0 6 C-0.04080783 4.00041636 -0.04254356 1.99954746 0 0 Z " fill="#ADADAD" transform="translate(151,97)"/>
<path d="M0 0 C0.99 0.33 1.98 0.66 3 1 C2.67 1.99 2.34 2.98 2 4 C-3.94 4 -9.88 4 -16 4 C-16 3.34 -16 2.68 -16 2 C-10.72 2 -5.44 2 0 2 C0 1.34 0 0.68 0 0 Z " fill="#545A9C" transform="translate(207,38)"/>
<path d="M0 0 C1.98 0 3.96 0 6 0 C6.33 1.32 6.66 2.64 7 4 C7.66 4 8.32 4 9 4 C9 4.99 9 5.98 9 7 C8.01 6.67 7.02 6.34 6 6 C6 5.01 6 4.02 6 3 C5.34 3 4.68 3 4 3 C4 2.34 4 1.68 4 1 C3.01 1.33 2.02 1.66 1 2 C0.26676204 4.01508358 0.26676204 4.01508358 0 6 C-0.66 6 -1.32 6 -2 6 C-2.33 6.66 -2.66 7.32 -3 8 C-3 6.68 -3 5.36 -3 4 C-2.34 4 -1.68 4 -1 4 C-0.67 2.68 -0.34 1.36 0 0 Z " fill="#E9E8E9" transform="translate(245,93)"/>
<path d="M0 0 C2.31 0 4.62 0 7 0 C7.66 1.32 8.32 2.64 9 4 C8.01 3.34 7.02 2.68 6 2 C4.34450469 1.61500109 2.6777567 1.27206865 1 1 C0.8453125 2.6396875 0.8453125 2.6396875 0.6875 4.3125 C0.02692273 7.85559629 -0.2027092 8.93243723 -3 11 C-3.66 9.02 -4.32 7.04 -5 5 C-4.01 5.33 -3.02 5.66 -2 6 C-1.34 4.02 -0.68 2.04 0 0 Z " fill="#E1E4F4" transform="translate(185,65)"/>
<path d="M0 0 C4.95 0 9.9 0 15 0 C14.67 0.66 14.34 1.32 14 2 C8.96109772 3.0283474 4.11310018 3.08970351 -1 3 C-0.67 2.01 -0.34 1.02 0 0 Z " fill="#7C7FB4" transform="translate(183,50)"/>
<path d="M0 0 C0.99 0.495 0.99 0.495 2 1 C3.53668865 1.22467831 5.07968054 1.40796805 6.625 1.5625 C7.44226563 1.64628906 8.25953125 1.73007812 9.1015625 1.81640625 C9.72804687 1.87699219 10.35453125 1.93757813 11 2 C11 2.66 11 3.32 11 4 C8.69 4 6.38 4 4 4 C4.66 5.65 5.32 7.3 6 9 C2.07699505 6.64619703 1.16142685 4.35535069 0 0 Z " fill="#6D73AD" transform="translate(167,48)"/>
<path d="M0 0 C1.32 0.66 2.64 1.32 4 2 C3.67 3.32 3.34 4.64 3 6 C2.34 5.67 1.68 5.34 1 5 C-0.53668865 4.77532169 -2.07968054 4.59203195 -3.625 4.4375 C-4.44226563 4.35371094 -5.25953125 4.26992188 -6.1015625 4.18359375 C-6.72804687 4.12300781 -7.35453125 4.06242187 -8 4 C-8 3.34 -8 2.68 -8 2 C-5.36 2 -2.72 2 0 2 C0 1.34 0 0.68 0 0 Z " fill="#6B71AE" transform="translate(207,18)"/>
<path d="M0 0 C2 0 2 0 3.65625 1.64453125 C4.56890625 2.71767578 4.56890625 2.71767578 5.5 3.8125 C6.41265625 4.87404297 6.41265625 4.87404297 7.34375 5.95703125 C9 8 9 8 11 11 C7.20450741 10.45418801 5.69020705 8.94590705 3.25 6.0625 C2.63640625 5.35222656 2.0228125 4.64195313 1.390625 3.91015625 C0 2 0 2 0 0 Z " fill="#BFC3E4" transform="translate(137,78)"/>
<path d="M0 0 C0.66 0 1.32 0 2 0 C1.01 2.97 0.02 5.94 -1 9 C-1.66 9 -2.32 9 -3 9 C-3 9.66 -3 10.32 -3 11 C-4.32 11.33 -5.64 11.66 -7 12 C-7.33 10.68 -7.66 9.36 -8 8 C-7.01 8.33 -6.02 8.66 -5 9 C-4.67 8.01 -4.34 7.02 -4 6 C-3.34 6 -2.68 6 -2 6 C-1.34 4.02 -0.68 2.04 0 0 Z " fill="#DDE3F1" transform="translate(222,71)"/>
<path d="M0 0 C0.33 0.66 0.66 1.32 1 2 C1.99 2 2.98 2 4 2 C4 2.66 4 3.32 4 4 C0.04 4.66 -3.92 5.32 -8 6 C-7.34 4.68 -6.68 3.36 -6 2 C-4.02 2 -2.04 2 0 2 C0 1.34 0 0.68 0 0 Z " fill="#A6A6A6" transform="translate(249,98)"/>
<path d="M0 0 C0.226875 0.639375 0.45375 1.27875 0.6875 1.9375 C1.83177823 4.27087348 1.83177823 4.27087348 4.5 4.5625 C5.325 4.706875 6.15 4.85125 7 5 C7.99 6.485 7.99 6.485 9 8 C7.35 7.67 5.7 7.34 4 7 C4 6.34 4 5.68 4 5 C3.34 5.66 2.68 6.32 2 7 C1.01 7 0.02 7 -1 7 C-1.33 6.34 -1.66 5.68 -2 5 C-1.01 5 -0.02 5 1 5 C1 4.34 1 3.68 1 3 C0.34 3 -0.32 3 -1 3 C-0.67 2.01 -0.34 1.02 0 0 Z " fill="#5D65A4" transform="translate(287,76)"/>
<path d="M0 0 C0.66 0 1.32 0 2 0 C1.5020163 3.73487777 1.12508244 5.81237635 -1 9 C-1.99 9 -2.98 9 -4 9 C-3.67 7.35 -3.34 5.7 -3 4 C-2.01 3.67 -1.02 3.34 0 3 C0 2.01 0 1.02 0 0 Z " fill="#293187" transform="translate(222,78)"/>
<path d="M0 0 C0.99 0.33 1.98 0.66 3 1 C4.1875 4.5625 4.1875 4.5625 5 8 C3.02 8 1.04 8 -1 8 C-1.66 6.68 -2.32 5.36 -3 4 C-2.01 4 -1.02 4 0 4 C0 4.99 0 5.98 0 7 C0.66 7 1.32 7 2 7 C1.34 4.69 0.68 2.38 0 0 Z " fill="#53599B" transform="translate(240,80)"/>
<path d="M0 0 C0.33 0 0.66 0 1 0 C1.99 2.97 2.98 5.94 4 9 C7.3 9.33 10.6 9.66 14 10 C14 10.33 14 10.66 14 11 C10.04 11 6.08 11 2 11 C-0.10814567 6.78370866 -0.17700355 4.60209225 0 0 Z " fill="#C9CFE4" transform="translate(206,79)"/>
<path d="M0 0 C2.30142435 1.78174788 3.80034391 3.16304165 4.48828125 6.046875 C4.72323102 8.0246611 4.86751458 10.01271872 5 12 C4.34 12 3.68 12 3 12 C2.67 12.99 2.34 13.98 2 15 C1.67 13.35 1.34 11.7 1 10 C1.66 10 2.32 10 3 10 C2.690625 9.0925 2.38125 8.185 2.0625 7.25 C1.2727737 4.83436662 0.57050703 2.47219715 0 0 Z " fill="#51599F" transform="translate(191,69)"/>
<path d="M0 0 C0.66 0 1.32 0 2 0 C2 0.66 2 1.32 2 2 C2.66 2.33 3.32 2.66 4 3 C3.67 4.65 3.34 6.3 3 8 C2.34 8 1.68 8 1 8 C0.67 8.66 0.34 9.32 0 10 C0 6.7 0 3.4 0 0 Z " fill="#C0C0BF" transform="translate(221,94)"/>
<path d="M0 0 C-8.261959 5.74031891 -8.261959 5.74031891 -13 5 C-12.01 4.67 -11.02 4.34 -10 4 C-10 3.34 -10 2.68 -10 2 C-3.375 -1.125 -3.375 -1.125 0 0 Z " fill="#DADEEF" transform="translate(200,56)"/>
<path d="M0 0 C2.97 0 5.94 0 9 0 C9 1.32 9 2.64 9 4 C8.01 4 7.02 4 6 4 C6 3.34 6 2.68 6 2 C4.02 2 2.04 2 0 2 C0 1.34 0 0.68 0 0 Z " fill="#646EAB" transform="translate(181,56)"/>
<path d="M0 0 C0.66 0.33 1.32 0.66 2 1 C1.67 2.65 1.34 4.3 1 6 C0.01 6.33 -0.98 6.66 -2 7 C-2.33 5.35 -2.66 3.7 -3 2 C-2.01 2 -1.02 2 0 2 C0 1.34 0 0.68 0 0 Z " fill="#2F3686" transform="translate(176,80)"/>
<path d="M0 0 C-0.66 1.32 -1.32 2.64 -2 4 C-4.64 4 -7.28 4 -10 4 C-9 2 -9 2 -6.125 0.875 C-3 0 -3 0 0 0 Z " fill="#46488F" transform="translate(201,50)"/>
<path d="M0 0 C0.99 0.33 1.98 0.66 3 1 C1.625 3 1.625 3 0 5 C-0.66 5 -1.32 5 -2 5 C-2.33 6.32 -2.66 7.64 -3 9 C-3.75 7.3125 -3.75 7.3125 -4 5 C-2.0625 2.25 -2.0625 2.25 0 0 Z " fill="#253084" transform="translate(108,71)"/>
<path d="M0 0 C0.33 0.66 0.66 1.32 1 2 C3.64 2 6.28 2 9 2 C9 2.66 9 3.32 9 4 C5.7 4 2.4 4 -1 4 C-0.67 2.68 -0.34 1.36 0 0 Z " fill="#6970AD" transform="translate(170,28)"/>
<path d="M0 0 C6.625 -0.25 6.625 -0.25 10 2 C10 2.66 10 3.32 10 4 C9.01 4 8.02 4 7 4 C7 3.34 7 2.68 7 2 C4.69 2 2.38 2 0 2 C0 1.34 0 0.68 0 0 Z " fill="#3F458D" transform="translate(201,22)"/>
<path d="M0 0 C0.33 0 0.66 0 1 0 C1 2.64 1 5.28 1 8 C0.34 8 -0.32 8 -1 8 C-1 7.34 -1 6.68 -1 6 C-2.65 6 -4.3 6 -6 6 C-6 5.34 -6 4.68 -6 4 C-4.02 4 -2.04 4 0 4 C0 2.68 0 1.36 0 0 Z " fill="#757BAF" transform="translate(186,16)"/>
<path d="M0 0 C0.99 0.66 1.98 1.32 3 2 C3 2.66 3 3.32 3 4 C0.03 4 -2.94 4 -6 4 C-6 3.34 -6 2.68 -6 2 C-4.02 2 -2.04 2 0 2 C0 1.34 0 0.68 0 0 Z " fill="#A6A7C6" transform="translate(300,86)"/>
<path d="M0 0 C0.99 0 1.98 0 3 0 C2.49396008 2.16874252 2.00016187 3.99967627 1 6 C-0.32 5.67 -1.64 5.34 -3 5 C-1.6875 2.5 -1.6875 2.5 0 0 Z " fill="#293283" transform="translate(101,81)"/>
<path d="M0 0 C0 0.66 0 1.32 0 2 C-0.66 2 -1.32 2 -2 2 C-2 2.66 -2 3.32 -2 4 C-1.34 4 -0.68 4 0 4 C-0.33 4.66 -0.66 5.32 -1 6 C-2.32 5.67 -3.64 5.34 -5 5 C-5.33 3.68 -5.66 2.36 -6 1 C-3.92446352 0.4465236 -2.15634036 0 0 0 Z " fill="#DBDCEF" transform="translate(294,75)"/>
<path d="M0 0 C0.99 0 1.98 0 3 0 C3.33 2.97 3.66 5.94 4 9 C3.34 8.67 2.68 8.34 2 8 C2 6.35 2 4.7 2 3 C0.02 3.99 0.02 3.99 -2 5 C-1.34 3.35 -0.68 1.7 0 0 Z " fill="#7C82BB" transform="translate(205,76)"/>
<path d="M0 0 C1.485 0.99 1.485 0.99 3 2 C3.66 1.67 4.32 1.34 5 1 C4.34 3.64 3.68 6.28 3 9 C2.34 9 1.68 9 1 9 C0.67 6.03 0.34 3.06 0 0 Z " fill="#ABB4DA" transform="translate(180,72)"/>
<path d="M0 0 C2.31 0 4.62 0 7 0 C6.67 0.99 6.34 1.98 6 3 C4.02 3 2.04 3 0 3 C0 2.01 0 1.02 0 0 Z " fill="#DEDDDD" transform="translate(184,96)"/>
<path d="M0 0 C4 1 4 1 6 4 C4.35 3.67 2.7 3.34 1 3 C1 4.98 1 6.96 1 9 C0.67 9 0.34 9 0 9 C0 6.03 0 3.06 0 0 Z " fill="#B9BEE1" transform="translate(281,80)"/>
<path d="M0 0 C3.08089673 2.77280706 4.68775452 5.06326356 6 9 C5.01 9.33 4.02 9.66 3 10 C2.49596232 8.70990357 1.99690074 7.41786211 1.5 6.125 C1.2215625 5.40570313 0.943125 4.68640625 0.65625 3.9453125 C0 2 0 2 0 0 Z " fill="#5B619E" transform="translate(113,67)"/>
<path d="M0 0 C2.31 0 4.62 0 7 0 C6.01 0.33 5.02 0.66 4 1 C4 1.99 4 2.98 4 4 C2.68 4 1.36 4 0 4 C0 2.68 0 1.36 0 0 Z " fill="#EFEFEF" transform="translate(125,97)"/>
<path d="M0 0 C0 1.32 0 2.64 0 4 C-0.99 4.33 -1.98 4.66 -3 5 C-3.99 4.34 -4.98 3.68 -6 3 C-4.60722783 0.21445565 -3.01148006 0 0 0 Z " fill="#333E8A" transform="translate(202,78)"/>
<path d="M0 0 C2.5 1.3125 2.5 1.3125 5 3 C5 3.99 5 4.98 5 6 C5.66 6 6.32 6 7 6 C6.67 6.99 6.34 7.98 6 9 C6 8.34 6 7.68 6 7 C5.01 6.67 4.02 6.34 3 6 C0 2.55555556 0 2.55555556 0 0 Z " fill="#BFC2DE" transform="translate(237,74)"/>
<path d="M0 0 C0.66 0.33 1.32 0.66 2 1 C1.1875 4.4375 1.1875 4.4375 0 8 C-0.99 8.33 -1.98 8.66 -3 9 C-2.01 6.03 -1.02 3.06 0 0 Z " fill="#DADEEF" transform="translate(200,69)"/>
<path d="M0 0 C2.125 0.375 2.125 0.375 4 1 C3.34 2.32 2.68 3.64 2 5 C0.68 4.01 -0.64 3.02 -2 2 C-1.34 1.34 -0.68 0.68 0 0 Z " fill="#484B92" transform="translate(285,72)"/>
<path d="M0 0 C0.66 0.33 1.32 0.66 2 1 C2 2.65 2 4.3 2 6 C1.01 6.33 0.02 6.66 -1 7 C-1 5.68 -1 4.36 -1 3 C-1.66 2.67 -2.32 2.34 -3 2 C-2.01 2 -1.02 2 0 2 C0 1.34 0 0.68 0 0 Z " fill="#313A8B" transform="translate(192,73)"/>
<path d="M0 0 C2.99931194 1.99954129 3.81380099 2.73795271 5 6 C4.67 6.99 4.34 7.98 4 9 C3.34 8.34 2.68 7.68 2 7 C2 6.01 2 5.02 2 4 C1.34 4 0.68 4 0 4 C0 2.68 0 1.36 0 0 Z " fill="#DCDEED" transform="translate(166,49)"/>
<path d="M0 0 C0 0.99 0 1.98 0 3 C0.99 3.66 1.98 4.32 3 5 C0.69 5 -1.62 5 -4 5 C-4 4.01 -4 3.02 -4 2 C-2.68 1.34 -1.36 0.68 0 0 Z " fill="#515899" transform="translate(99,83)"/>
<path d="M0 0 C0.99 0.33 1.98 0.66 3 1 C3 1.99 3 2.98 3 4 C3.66 4 4.32 4 5 4 C5 4.66 5 5.32 5 6 C4.01 6 3.02 6 2 6 C2 5.34 2 4.68 2 4 C1.34 4 0.68 4 0 4 C0 2.68 0 1.36 0 0 Z " fill="#262F87" transform="translate(283,75)"/>
<path d="M0 0 C0.33 0 0.66 0 1 0 C1 2.97 1 5.94 1 9 C0.01 8.67 -0.98 8.34 -2 8 C-1.33333333 5.33333333 -0.66666667 2.66666667 0 0 Z " fill="#D6D8EB" transform="translate(211,34)"/>
</svg>
